<svg width="1920" height="425" viewBox="0 0 1920 425" fill="none" xmlns="http://www.w3.org/2000/svg">
<path opacity="0.3" d="M2117.28 0.234375H-195.169V0.978123H-179.612L-195.169 1.66237V2.41728L-162.487 0.978123H-125.339L-195.169 4.20227V4.95717L-108.998 0.978123H-71.1211L-195.169 6.98761V7.74251L-55.5223 0.978123H-16.7659L-195.169 10.0853V10.8439L-1.93675 0.978123H37.5481L-146.586 10.9592H-195.169V11.703H-160.302L-195.169 13.5921V14.3507L-146.311 11.703H-93.2068L-195.169 17.5972V18.3595L-80.0681 11.703H-28.3516L-195.169 22.108V23.2534L-10.0041 11.703H43.3753L-137.241 23.986H-195.169V24.7297H-148.167L-195.169 27.9241V28.6902L-136.897 24.7297H-61.6656L-195.169 34.7257V35.4992L-51.3581 24.7297H23.4199L-176.093 41.4008H-195.169V42.5164H-189.438L-195.169 42.9925V44.1601L-175.475 42.5164H-77.9379L-195.169 53.5202V54.3086L-69.5406 42.5164H30.3878L-129.847 59.645H-195.169V60.3887H-136.801L-195.169 66.625V67.4246L-129.325 60.3887H-8.56107L-172.08 80.6149H-195.169V81.3587H-178.1L-195.169 83.4709V84.6981L-168.177 81.3587H-32.9831L-195.169 104.616V105.456L-27.1147 81.3587H102.623L-54.093 107.646H-195.169V109.506H-65.184L-195.169 131.309V132.183L-59.9615 109.506H87.2993L-73.1414 141.375H-195.169V142.119H-76.8796L-195.169 165.614V166.533L-196.805 166.86L-195.169 167.459L-193.534 168.054L-64.4006 142.119H105.702L-56.1683 181.214H-195.169V181.958H-59.2468L-195.169 214.787V215.784L-55.1238 181.958H178.707L32.7516 228.665H-195.169V230.897H25.7838L-120.309 277.645H-195.169V278.389H-122.631L-195.169 301.601V302.754L-119.031 278.389H161.582L33.4938 334.274H-195.169V335.018H31.7896L-114.042 398.649H-195.169V401.033H-119.512L-174.444 425H-169.593L-114.66 401.033H270.966L236.154 425H239.109L273.921 401.033H622.289L605.302 425H608.106L625.093 401.033H956.255V425H963.112V401.033H1297.02L1314.01 425H1316.81L1299.83 401.033H1648.19L1683.01 425H1685.95L1651.14 401.033H2036.78L2091.71 425H2096.56L2041.63 401.033H2117.28V398.649H2036.16L1890.33 335.018H2117.28V334.274H1888.62L1760.53 278.389H2041.15L2117.28 302.754V301.601L2044.75 278.389H2117.28V277.645H2042.42L1896.33 230.897H2117.28V228.665H1889.36L1743.41 181.958H1977.23L2117.28 215.784V214.787L1981.36 181.958H2117.28V181.214H1978.28L1816.41 142.119H1989.7L2117.28 167.459V165.614L1999 142.119H2117.28V141.375H1995.26L1834.8 109.506H1982.08L2117.28 132.183V131.309L1987.3 109.506H2117.28V107.646H1976.21L1819.49 81.3587H1949.23L2117.28 105.456V104.616L1955.1 81.3587H2090.29L2117.28 84.6981V83.4709L2100.22 81.3587H2117.28V80.6149H2094.2L1930.68 60.3887H2051.44L2117.28 67.4246V66.625L2058.92 60.3887H2117.28V59.645H2051.96L1891.73 42.5164H1991.66L2117.28 54.3086V53.5202L2000.05 42.5164H2097.59L2117.28 44.1601V42.9925L2111.55 42.5164H2117.28V41.4008H2098.21L1898.7 24.7297H1973.47L2117.28 35.4992V34.7257L1983.78 24.7297H2059.01L2117.28 28.6902V27.9241L2070.28 24.7297H2117.28V23.986H2059.36L1878.73 11.703H1935.18L2117.28 23.0637V22.2977L1947.42 11.703H1998.89L2117.28 18.5492V17.4075L2018.61 11.703H2068.43L2117.28 14.3507V13.5921L2082.42 11.703H2117.28V10.9592H2068.7L1884.57 0.978123H1924.05L2117.28 10.8439V10.0853L1938.88 0.978123H1977.64L2117.28 7.74251V6.98761L1993.24 0.978123H2031.11L2117.28 4.95717V4.20227L2047.45 0.978123H2084.6L2117.28 2.41728V1.66237L2101.73 0.978123H2117.28V0.234375ZM905.912 0.978123L898.848 10.9592H840.549L855.034 0.978123H905.912ZM258.693 11.703H318.629L203.72 23.986H127.842L258.693 11.703ZM119.445 23.986H46.2889L193.302 11.703H250.31L119.445 23.986ZM367.816 24.7297H440.258L340.865 41.4008H251.561L367.816 24.7297ZM245.692 41.4008H154.848L289.602 24.7297H361.948L245.692 41.4008ZM447.171 59.645H347.613L433.853 42.5164H518.101L447.171 59.645ZM522.224 42.5164H614.442L560.911 59.645H451.307L522.224 42.5164ZM448.229 60.3887H558.589L495.383 80.6149H364.477L448.229 60.3887ZM496.647 81.3587H613.164L552.913 107.646H414.516L496.647 81.3587ZM498.983 80.6149L562.189 60.3887H661.224L614.868 80.6149H498.983ZM564.512 59.645L618.043 42.5164H702.194L662.929 59.645H564.512ZM621.52 41.4008L673.621 24.7297H742.957L704.75 41.4008H621.52ZM617.919 41.4008H526.841L595.861 24.7297H670.02L617.919 41.4008ZM522.718 41.4008H439.474L523.392 24.7297H591.738L522.718 41.4008ZM427.834 41.4008H346.088L445.467 24.7297H510.83L427.834 41.4008ZM422.281 42.5164L336.99 59.645H237.309L339.436 42.5164H422.281ZM343.875 60.3887H444.092L360.34 80.6149H242.036L343.875 60.3887ZM361.398 81.3587H493.06L410.916 107.646H252.564L361.398 81.3587ZM548.652 109.506L475.62 141.375H309.118L408.703 109.506H548.652ZM478.753 142.119H647.069L590.281 181.214H389.146L478.753 142.119ZM480.457 141.375L553.504 109.506H694.442L648.154 141.375H480.457ZM557.764 107.646L618.015 81.3587H735.329L697.15 107.646H557.764ZM619.719 80.6149L666.076 60.3887H765.798L736.415 80.6149H619.719ZM667.78 59.645L707.045 42.5164H791.759L766.87 59.645H667.78ZM709.601 41.4008L747.808 24.7297H817.583L793.367 41.4008H709.601ZM749.512 23.986L777.659 11.703H836.508L818.669 23.986H749.512ZM744.661 23.986H675.944L714.329 11.703H772.821L744.661 23.986ZM672.343 23.986H598.939L649.804 11.703H710.728L672.343 23.986ZM594.816 23.986H527.144L588.989 11.703H645.681L594.816 23.986ZM514.527 23.986H449.906L523.144 11.703H575.685L514.527 23.986ZM444.683 23.986H373.011L458.674 11.703H517.922L444.683 23.986ZM367.143 23.986H295.608L394.905 11.703H452.806L367.143 23.986ZM285.699 23.986H211.196L326.119 11.703H384.995L285.699 23.986ZM204.242 24.7297H279.68L144.925 41.4008H48.3092L204.242 24.7297ZM145.819 42.5164H237.913L118.456 59.645H7.36755L145.819 42.5164ZM243.782 42.5164H334.214L232.1 59.645H124.324L243.782 42.5164ZM232.87 60.3887H333.293L232.581 80.6149H112.271L232.87 60.3887ZM238.284 81.3587H357.261L248.427 107.646H107.227L220.899 84.8134L238.284 81.3587ZM405.102 109.506L305.517 141.375H112.917L244.854 109.506H405.102ZM306.795 142.119H473.915L384.308 181.214H184.63L306.795 142.119ZM387.442 181.958H589.195L521.358 228.665H280.394L387.442 181.958ZM518.114 230.897L450.208 277.645H168.138L275.282 230.897H518.114ZM452.077 278.389H709.244L669.622 334.274H370.895L452.077 278.389ZM453.163 277.645L521.069 230.897H742.915L709.766 277.645H453.163ZM524.313 228.665L592.15 181.958H777.617L744.496 228.665H524.313ZM593.236 181.214L650.024 142.119H805.86L778.14 181.214H593.236ZM651.109 141.375L697.397 109.506H828.977L806.383 141.375H651.109ZM700.091 107.646L738.284 81.3587H848.932L830.296 107.646H700.091ZM739.356 80.6149L768.739 60.3887H863.802L849.454 80.6149H739.356ZM769.825 59.645L794.701 42.5164H876.474L864.325 59.645H769.825ZM796.322 41.4008L820.538 24.7297H889.077L877.257 41.4008H796.322ZM821.624 23.986L839.463 11.703H898.312L889.613 23.986H821.624ZM852.093 0.978123L837.594 10.9592H779.377L802.246 0.978123H852.093ZM797.394 0.978123L774.525 10.9592H716.652L747.836 0.978123H797.394ZM744.235 0.978123L713.051 10.9592H652.882L694.195 0.978123H744.235ZM642.973 0.978123H690.072L648.759 10.9592H592.727L641.819 1.20497L642.973 0.978123ZM629.079 0.978123L579.382 10.9592H527.57L587.065 0.978123H629.079ZM581.856 0.978123L522.361 10.9592H463.855L533.452 0.978123H581.856ZM481.584 0.978123H527.583L457.987 10.9592H400.924L480.485 1.11572L481.584 0.978123ZM471.675 0.978123L391.001 10.9592H333.073L426.418 0.978123H471.675ZM418.942 0.978123L325.583 10.9592H266.61L372.915 0.978123H418.942ZM321.638 0.978123H364.532L258.226 10.9592H202.208L319.714 1.13803L321.638 0.978123ZM307.661 0.978123L188.231 10.9592H132.543L265.813 0.978123H307.661ZM255.505 0.978123L122.249 10.9592H65.5847L212.323 0.978123H255.505ZM-80.3567 10.9592H-132.582L51.5527 0.978123H92.1782L-80.3567 10.9592ZM-16.436 10.9592H-67.2042L105.331 0.978123H143.524L-16.436 10.9592ZM1.91141 10.9592L161.129 1.02647L161.088 0.978123H201.04L54.3151 10.9592H1.91141ZM-51.7292 23.986H-125.957L54.6587 11.703H112.312L-51.7292 23.986ZM-41.4353 23.986L122.62 11.703H179.339L32.3256 23.986H-41.4353ZM-162.116 41.4008L37.3969 24.7297H111.529L-66.0498 41.4008H-162.116ZM-57.6663 41.4008L119.912 24.7297H196.766L40.819 41.4008H-57.6663ZM-122.37 59.645L37.8642 42.5164H135.91L-2.55521 59.645H-122.37ZM-27.8018 80.6149H-162.171L1.34793 60.3887H113.274L-27.8018 80.6149ZM-21.9334 80.6149L119.143 60.3887H227.661L107.062 80.6149H-21.9334ZM-48.8843 107.646L107.832 81.3587H228.87L217.628 83.616L96.6723 107.646H-48.8843ZM-60.7036 141.375L97.9642 109.506H240.731L108.78 141.375H-60.7036ZM-52.0315 181.214L109.838 142.119H303.195L181.029 181.214H-52.0315ZM182.308 181.958H382.604L275.543 228.665H36.3524L182.308 181.958ZM-116.708 277.645L29.3708 230.897H270.43L163.287 277.645H-116.708ZM166.434 278.389H449.122L367.954 334.274H38.3452L166.434 278.389ZM-109.204 398.649L36.641 335.018H366.868L274.443 398.649H-109.204ZM623.98 398.649H277.385L369.823 335.018H669.099L623.98 398.649ZM956.255 398.649H626.784L671.889 335.018H956.255V398.649ZM956.255 334.274H672.425L712.048 278.389H956.255V334.274ZM956.255 277.645H712.57L745.719 230.897H956.255V277.645ZM956.255 228.665H747.3L780.407 181.958H956.255V228.665ZM956.255 181.214H780.93L808.65 142.119H956.255V181.214ZM956.255 141.375H809.186L831.78 109.506H956.255V141.375ZM956.255 107.646H833.086L851.722 81.3587H956.255V107.646ZM956.255 80.6149H852.258L866.592 60.3887H956.255V80.6149ZM956.255 59.645H867.128L879.264 42.5164H956.255V59.645ZM956.255 41.4008H880.061L891.88 24.7297H956.255V41.4008ZM956.255 23.986H892.403L901.116 11.703H956.255V23.986ZM956.255 10.9592H901.638L908.716 0.978123H956.255V10.9592ZM1709.79 0.978123L1856.52 10.9592H1799.87L1666.61 0.978123H1709.79ZM1656.3 0.978123L1789.57 10.9592H1733.87L1614.44 0.978123H1656.3ZM1357.6 59.645H1259.17L1219.92 42.5164H1304.07L1357.6 59.645ZM1307.67 42.5164H1399.89L1470.81 59.645H1361.2L1307.67 42.5164ZM1359.93 60.3887L1423.13 80.6149H1307.25L1260.88 60.3887H1359.93ZM1425.47 81.3587L1507.6 107.646H1369.2L1308.95 81.3587H1425.47ZM1363.53 60.3887H1473.89L1557.64 80.6149H1426.73L1363.53 60.3887ZM1404.02 42.5164H1488.26L1574.49 59.645H1474.93L1404.02 42.5164ZM1408 24.7297H1476.65L1576.03 41.4008H1491.93L1408 24.7297ZM1482.64 41.4008H1399.4L1330.38 24.7297H1398.71L1482.64 41.4008ZM1395.27 41.4008H1304.2L1252.1 24.7297H1326.25L1395.27 41.4008ZM1300.6 41.4008H1217.37L1179.16 24.7297H1248.49L1300.6 41.4008ZM1212.51 41.4008H1128.73L1104.53 24.7297H1174.31L1212.51 41.4008ZM1215.07 42.5164L1254.34 59.645H1155.25L1130.36 42.5164H1215.07ZM1256.04 60.3887L1302.4 80.6149H1185.7L1156.32 60.3887H1256.04ZM1304.1 81.3587L1364.35 107.646H1224.97L1186.79 81.3587H1304.1ZM1368.61 109.506L1441.66 141.375H1273.96L1227.67 109.506H1368.61ZM1443.36 142.119L1532.96 181.214H1331.83L1275.05 142.119H1443.36ZM1373.46 109.506H1513.41L1613 141.375H1446.5L1373.46 109.506ZM1511.2 107.646L1429.06 81.3587H1560.72L1669.55 107.646H1511.2ZM1478.02 60.3887H1578.24L1680.08 80.6149H1561.78L1478.02 60.3887ZM1497.55 42.5164H1582.68L1684.81 59.645H1583.78L1497.55 42.5164ZM1581.25 41.4008L1481.86 24.7297H1554.3L1670.55 41.4008H1581.25ZM1560.17 24.7297H1632.51L1767.27 41.4008H1676.42L1560.17 24.7297ZM1537.12 11.703H1596L1710.91 23.986H1636.42L1537.12 11.703ZM1626.51 23.986H1554.97L1469.31 11.703H1527.21L1626.51 23.986ZM1549.1 23.986H1477.42L1404.19 11.703H1463.44L1549.1 23.986ZM1472.21 23.986H1404.26L1342.42 11.703H1398.97L1472.21 23.986ZM1394.97 23.986H1327.3L1276.43 11.703H1333.13L1394.97 23.986ZM1323.18 23.986H1249.77L1211.39 11.703H1272.31L1323.18 23.986ZM1246.17 23.986H1177.45L1149.29 11.703H1207.79L1246.17 23.986ZM1172.6 23.986H1103.45L1085.61 11.703H1144.44L1172.6 23.986ZM1100.49 23.986H1032.5L1023.8 11.703H1082.65L1100.49 23.986ZM1101.58 24.7297L1125.79 41.4008H1044.86L1033.04 24.7297H1101.58ZM1127.42 42.5164L1152.29 59.645H1057.79L1045.64 42.5164H1127.42ZM1153.38 60.3887L1182.76 80.6149H1072.66L1058.31 60.3887H1153.38ZM1183.83 81.3587L1222.01 107.646H1091.82L1073.18 81.3587H1183.83ZM1224.72 109.506L1271.01 141.375H1115.73L1093.14 109.506H1224.72ZM1272.09 142.119L1328.88 181.214H1143.98L1116.26 142.119H1272.09ZM1329.97 181.958L1397.8 228.665H1177.62L1144.5 181.958H1329.97ZM1401.05 230.897L1468.95 277.645H1212.35L1179.2 230.897H1401.05ZM1470.04 278.389L1551.22 334.274H1252.49L1212.87 278.389H1470.04ZM1404 230.897H1646.83L1753.98 277.645H1471.91L1404 230.897ZM1400.76 228.665L1332.92 181.958H1534.66L1641.72 228.665H1400.76ZM1448.2 142.119H1615.32L1737.49 181.214H1537.81L1448.2 142.119ZM1517.01 109.506H1677.25L1809.2 141.375H1616.6L1517.01 109.506ZM1673.69 107.646L1564.85 81.3587H1683.82L1816.17 107.646H1673.69ZM1587.53 60.3887H1689.23L1809.84 80.6149H1689.37L1587.53 60.3887ZM1587.9 42.5164H1678.33L1797.79 59.645H1690.02L1587.9 42.5164ZM1684.2 42.5164H1776.3L1914.75 59.645H1803.66L1684.2 42.5164ZM1642.44 24.7297H1717.87L1873.81 41.4008H1777.19L1642.44 24.7297ZM1603.49 11.703H1663.42L1794.27 23.986H1718.4L1603.49 11.703ZM1671.81 11.703H1728.8L1875.83 23.986H1802.66L1671.81 11.703ZM1600.48 0.978123L1719.91 10.9592H1663.89L1557.58 0.978123H1600.48ZM1549.2 0.978123L1655.51 10.9592H1596.52L1503.17 0.978123H1549.2ZM1495.7 0.978123L1589.04 10.9592H1531.11L1450.44 0.978123H1495.7ZM1440.53 0.978123L1521.19 10.9592H1464.13L1394.53 0.978123H1440.53ZM1388.66 0.978123L1458.26 10.9592H1399.75L1340.26 0.978123H1388.66ZM1335.04 0.978123L1394.53 10.9592H1338.67L1288.43 0.978123H1335.04ZM1279.14 0.978123L1329.39 10.9592H1273.36L1232.04 0.978123H1279.14ZM1227.92 0.978123L1269.23 10.9592H1209.06L1177.88 0.978123H1227.92ZM1174.28 0.978123L1205.46 10.9592H1147.59L1124.72 0.978123H1174.28ZM1119.87 0.978123L1142.74 10.9592H1084.52L1070.02 0.978123H1119.87ZM1067.07 0.978123L1081.57 10.9592H1023.27L1016.19 0.978123H1067.07ZM963.112 0.978123H1013.4L1020.48 10.9592H963.112V0.978123ZM963.112 11.703H1021L1029.71 23.986H963.112V11.703ZM963.112 24.7297H1030.24L1042.05 41.4008H963.112V24.7297ZM963.112 42.5164H1042.85L1054.99 59.645H963.112V42.5164ZM963.112 60.3887H1055.52L1069.86 80.6149H963.112V60.3887ZM963.112 81.3587H1070.38L1089.02 107.646H963.112V81.3587ZM963.112 109.506H1090.34L1112.93 141.375H963.112V109.506ZM963.112 142.119H1113.47L1141.19 181.214H963.112V142.119ZM963.112 181.958H1141.71L1174.82 228.665H963.112V181.958ZM963.112 230.897H1176.4L1209.55 277.645H963.112V230.897ZM963.112 278.389H1210.07L1249.69 334.274H963.112V278.389ZM963.112 398.649V335.018H1250.23L1295.33 398.649H963.112ZM1298.14 398.649L1253.02 335.018H1552.29L1644.73 398.649H1298.14ZM2031.31 398.649H1647.67L1555.25 335.018H1885.47L2031.31 398.649ZM1883.77 334.274H1554.16L1472.99 278.389H1755.68L1883.77 334.274ZM1892.73 230.897L2038.82 277.645H1758.83L1651.69 230.897H1892.73ZM1885.76 228.665H1646.57L1539.51 181.958H1739.81L1885.76 228.665ZM1974.15 181.214H1741.09L1618.92 142.119H1812.28L1974.15 181.214ZM1985.97 141.375H1813.34L1681.38 109.506H1825.53L1985.97 141.375ZM1970.99 107.646H1825.44L1693.11 81.3587H1814.27L1970.99 107.646ZM1815.05 80.6149L1694.45 60.3887H1802.97L1944.05 80.6149H1815.05ZM2084.29 80.6149H1949.92L1808.84 60.3887H1920.77L2084.29 80.6149ZM2044.49 59.645H1924.67L1786.21 42.5164H1884.25L2044.49 59.645ZM1881.3 41.4008L1725.35 24.7297H1802.2L1979.78 41.4008H1881.3ZM2084.23 41.4008H1988.17L1810.59 24.7297H1884.72L2084.23 41.4008ZM1889.79 23.986L1742.78 11.703H1799.5L1963.54 23.986H1889.79ZM2048.07 23.986H1973.84L1809.8 11.703H1867.46L2048.07 23.986ZM1867.8 10.9592L1721.06 0.978123H1763.3L1923.26 10.9592H1867.8ZM1935.49 10.9592L1775.53 0.978123H1814.53L1814.49 1.03762L1986.04 10.9592H1935.49ZM2054.7 10.9592H2005.76L1833.22 0.978123H1870.56L2054.7 10.9592Z" fill="url(#paint0_linear_2375_171)"/>
<defs>
<linearGradient id="paint0_linear_2375_171" x1="960.24" y1="422.341" x2="960.24" y2="3.20563" gradientUnits="userSpaceOnUse">
<stop stop-color="#97CEFF"/>
<stop offset="0.21" stop-color="#95CBFC"/>
<stop offset="0.35" stop-color="#8EC2F3"/>
<stop offset="0.48" stop-color="#84B4E3"/>
<stop offset="0.59" stop-color="#749FCD"/>
<stop offset="0.69" stop-color="#6184B1"/>
<stop offset="0.8" stop-color="#49648F"/>
<stop offset="0.89" stop-color="#2C3D66"/>
<stop offset="0.98" stop-color="#0C1137"/>
<stop offset="1" stop-color="#05072D"/>
</linearGradient>
</defs>
</svg>
