<svg width="18" height="17" viewBox="0 0 18 17" fill="none" xmlns="http://www.w3.org/2000/svg">
<path d="M8.45473 3.6125C8.45473 3.02569 7.97906 2.55 7.39222 2.55H2.5047C1.56578 2.55 0.804688 3.31112 0.804688 4.25V15.3C0.804688 16.2389 1.56578 17 2.5047 17H13.5548C14.4937 17 15.2548 16.2389 15.2548 15.3V10.4125C15.2548 9.82566 14.7791 9.35 14.1923 9.35C13.6054 9.35 13.1297 9.82566 13.1297 10.4125V14.875H2.9297V4.675H7.39222C7.97906 4.675 8.45473 4.19931 8.45473 3.6125Z" fill="white"/>
<path fill-rule="evenodd" clip-rule="evenodd" d="M14.177 2.125H12.0672C11.4803 2.125 11.0047 1.64931 11.0047 1.0625C11.0047 0.475694 11.4803 0 12.0672 0H16.7422C17.3289 0 17.8047 0.475694 17.8047 1.0625V5.7375C17.8047 6.32431 17.3289 6.8 16.7422 6.8C16.1553 6.8 15.6797 6.32431 15.6797 5.7375V3.6276L8.25727 11.05C7.8423 11.465 7.16964 11.465 6.75466 11.05C6.33969 10.635 6.33969 9.96234 6.75466 9.54737L14.177 2.125Z" fill="white"/>
</svg>
