<svg width="631" height="65" viewBox="0 0 631 65" fill="none" xmlns="http://www.w3.org/2000/svg">
<g clip-path="url(#clip0_2375_270)">
<path d="M48.8803 52.9875H0.239086V64.3697H48.8846C61.3726 64.3697 68.827 57.3423 68.827 45.5673C68.827 33.7923 62.1197 27.0296 48.8846 27.0296H19.6777C14.8276 27.0296 11.8177 24.1179 11.8177 19.4343C11.8177 14.7508 14.7892 11.7494 19.763 11.7494H65.6634V0.367188H19.763C7.7575 0.367188 0 7.43731 0 18.3798C0 29.3222 7.87277 36.6528 19.588 36.6528H48.8803C54.8831 36.6528 58.0553 39.4621 58.0553 44.7732C58.0553 50.0843 54.627 52.9833 48.8803 52.9833V52.9875Z" fill="#131442"/>
<path d="M132.921 27.0293H97.3359V36.6568H132.921V27.0293Z" fill="#131442"/>
<path d="M135.369 52.9875H89.4133V11.7494H135.279V0.367188H78.125V64.3655H135.369V52.9875Z" fill="#131442"/>
<path d="M201.928 52.9875H155.972V11.7494H201.838V0.367188H144.68V64.3655H201.928V52.9875Z" fill="#131442"/>
<path d="M199.476 27.0293H163.891V36.6568H199.476V27.0293Z" fill="#131442"/>
<path d="M229.313 38.5543C226.026 38.5543 223.516 35.9585 223.516 32.6668C223.516 29.3751 226.026 26.7793 229.313 26.7793C232.601 26.7793 235.286 29.3751 235.286 32.6668C235.286 35.9585 232.691 38.5543 229.313 38.5543Z" fill="#131442"/>
<path d="M315.099 46.1437L270.898 2.28413C269.297 0.683104 267.875 0 266.137 0C262.594 0 260.391 2.56591 260.391 6.69869V63.9556H271.107V18.0724L315.137 62.3588C316.734 63.9556 318.403 64.7326 320.243 64.7326C323.629 64.7326 325.819 62.1027 325.819 58.0339V0.260433H315.103V46.1437H315.099Z" fill="#131442"/>
<path d="M347.37 12.0144H392.643V0.777344H336.219V63.9559H392.728V52.7189H347.37V12.0144Z" fill="#131442"/>
<path d="M390.3 27.0918H355.172V36.5955H390.3V27.0918Z" fill="#131442"/>
<path d="M470.207 23.8406C470.207 9.615 461.403 0.777344 447.233 0.777344H401.922V63.9559H413.074V12.0144H447.233C455.025 12.0144 459.145 16.1643 459.145 24.0114C459.145 31.8586 455.025 36.5293 447.233 36.5293H420.882V46.4685H444.496L460.425 63.9559H476.35L457.317 44.7479C465.51 41.5288 470.207 33.9207 470.207 23.8406Z" fill="#131442"/>
<path d="M507.439 36.6019H535.83V52.7189H509.031C497.765 52.7189 489.589 44.1032 489.589 32.2385C489.589 20.3739 497.765 12.0187 509.031 12.0187H543.259V0.777344H509.031C490.968 0.777344 478.352 13.5002 478.352 31.7177C478.352 49.9352 491.54 63.9559 509.031 63.9559H547.153V27.0939H507.439V36.5976V36.6019Z" fill="#131442"/>
<path d="M616.647 0.78125L592.115 29.7107L567.673 0.78125H552.555L586.108 39.9871V63.9555H597.345V39.9871L630.988 0.78125H616.647Z" fill="#131442"/>
</g>
<defs>
<clipPath id="clip0_2375_270">
<rect width="631" height="64.7326" fill="white"/>
</clipPath>
</defs>
</svg>
