<svg width="186" height="20" viewBox="0 0 186 20" fill="none" xmlns="http://www.w3.org/2000/svg">
<g id="Layer_1" clip-path="url(#clip0_2378_65)">
<path id="Vector" d="M68.2234 12.2194C67.2595 12.2194 66.5234 11.4727 66.5234 10.5257C66.5234 9.57878 67.2595 8.83203 68.2234 8.83203C69.1873 8.83203 69.9747 9.57878 69.9747 10.5257C69.9747 11.4727 69.2136 12.2194 68.2234 12.2194Z" fill="white"/>
<path id="Vector_2" d="M14.332 15.1376H0.0701013V18.412H14.3332C17.9948 18.412 20.1804 16.3904 20.1804 13.003C20.1804 9.6156 18.2138 7.67013 14.3332 7.67013H5.76959C4.34753 7.67013 3.46501 6.83249 3.46501 5.48516C3.46501 4.13782 4.33627 3.27439 5.79462 3.27439H19.2528V0H5.79462C2.27454 0 0 2.0339 0 5.18179C0 8.32967 2.30834 10.4385 5.7433 10.4385H14.332C16.092 10.4385 17.0221 11.2467 17.0221 12.7745C17.0221 14.3024 16.0169 15.1364 14.332 15.1364V15.1376Z" fill="white"/>
<path id="Vector_3" d="M38.9729 7.66992H28.5391V10.4395H38.9729V7.66992Z" fill="white"/>
<path id="Vector_4" d="M39.6983 15.1376H26.2238V3.27439H39.672V0H22.9141V18.4108H39.6983V15.1376Z" fill="white"/>
<path id="Vector_5" d="M59.2074 15.1376H45.7329V3.27439H59.1811V0H42.4219V18.4108H59.2074V15.1376Z" fill="white"/>
<path id="Vector_6" d="M58.4885 7.66992H48.0547V10.4395H58.4885V7.66992Z" fill="white"/>
<path id="Vector_7" d="M93.3766 14.4033L80.4166 1.78599C79.9472 1.32542 79.5304 1.12891 79.0209 1.12891C77.9819 1.12891 77.3359 1.86706 77.3359 3.05596V19.5274H80.478V6.32789L93.3879 19.068C93.8561 19.5274 94.3455 19.7509 94.885 19.7509C95.8777 19.7509 96.5199 18.9943 96.5199 17.8239V1.20383H93.3779V14.4033H93.3766Z" fill="white"/>
<path id="Vector_8" d="M102.839 4.58224H116.114V1.34961H99.5703V19.5246H116.139V16.2919H102.839V4.58224Z" fill="white"/>
<path id="Vector_9" d="M115.425 8.92188H105.125V11.6559H115.425V8.92188Z" fill="white"/>
<path id="Vector_10" d="M138.857 7.98436C138.857 3.89199 136.276 1.34961 132.121 1.34961H118.836V19.5246H122.106V4.58224H132.121C134.406 4.58224 135.614 5.77605 135.614 8.03349C135.614 10.2909 134.406 11.6346 132.121 11.6346H124.395V14.4938H131.319L135.989 19.5246H140.659L135.078 13.9989C137.48 13.0728 138.857 10.8841 138.857 7.98436Z" fill="white"/>
<path id="Vector_11" d="M149.771 11.6555H158.095V16.2919H150.238C146.934 16.2919 144.537 13.8134 144.537 10.4002C144.537 6.98706 146.934 4.58347 150.238 4.58347H160.273V1.34961H150.238C144.941 1.34961 141.242 5.00965 141.242 10.2504C141.242 15.4911 145.109 19.5246 150.238 19.5246H161.415V8.92025H149.771V11.6542V11.6555Z" fill="white"/>
<path id="Vector_12" d="M181.8 1.34961L174.607 9.67314L167.44 1.34961H163.008L172.846 12.6294V19.5246H176.141V12.6294L186.005 1.34961H181.8Z" fill="white"/>
</g>
<defs>
<clipPath id="clip0_2378_65">
<rect width="186" height="19.7495" fill="white"/>
</clipPath>
</defs>
</svg>
