<svg width="459" height="50" viewBox="0 0 459 50" fill="none" xmlns="http://www.w3.org/2000/svg">
<g clip-path="url(#clip0_2375_254)">
<path d="M0.320312 38.9057V2.28516H16.1167C20.199 2.28516 23.3658 3.10312 25.6095 4.74654C27.8608 6.38996 28.9864 8.70876 28.9864 11.7029C28.9864 13.6916 28.5212 15.365 27.5981 16.7233C26.6751 18.0815 25.4219 19.1096 23.831 19.8075C22.2401 20.5054 20.5067 20.8506 18.6231 20.8506L19.5161 19.5974C21.8499 19.5974 23.8685 19.9576 25.557 20.6705C27.2454 21.3834 28.5662 22.449 29.5042 23.8598C30.4422 25.2706 30.915 27.0266 30.915 29.1202C30.915 32.227 29.7744 34.6283 27.4856 36.3393C25.2043 38.0502 21.7599 38.9057 17.1523 38.9057H0.320312ZM4.19249 35.7164H17.1147C20.3266 35.7164 22.7804 35.1686 24.4914 34.0655C26.2024 32.9699 27.0578 31.2139 27.0578 28.8051C27.0578 26.3962 26.2024 24.7002 24.4914 23.5971C22.7804 22.5015 20.3266 21.9462 17.1147 21.9462H3.77225V18.7569H15.854C18.7807 18.7569 21.062 18.2016 22.6829 17.0835C24.3038 15.9653 25.1142 14.3069 25.1142 12.1157C25.1142 9.92445 24.3038 8.22099 22.6829 7.11787C21.062 6.02226 18.7882 5.46694 15.854 5.46694H4.19249V35.7014V35.7164Z" fill="#8FFFEF"/>
<path d="M50.1334 39.1691C47.2743 39.1691 44.7604 38.5687 42.5992 37.3681C40.438 36.1674 38.742 34.509 37.5263 32.4003C36.3032 30.2916 35.6953 27.8752 35.6953 25.1587C35.6953 22.4422 36.2806 20.0333 37.4513 17.9397C38.622 15.846 40.2279 14.2026 42.2615 12.9944C44.3026 11.7937 46.5914 11.1934 49.1429 11.1934C51.6943 11.1934 54.0131 11.7787 56.0242 12.9493C58.0279 14.12 59.6037 15.7559 60.7594 17.8646C61.9075 19.9733 62.4854 22.4047 62.4854 25.1662C62.4854 25.3388 62.4779 25.5264 62.4553 25.714C62.4403 25.9091 62.4253 26.1042 62.4253 26.3144H38.5169V23.5378H60.4367L58.9734 24.6334C58.9734 22.6448 58.5457 20.8738 57.6902 19.3204C56.8347 17.7671 55.679 16.5589 54.2082 15.6809C52.7449 14.8104 51.0489 14.3751 49.1354 14.3751C47.2218 14.3751 45.5634 14.8104 44.0625 15.6809C42.5617 16.5514 41.391 17.7746 40.558 19.3429C39.7176 20.9113 39.3048 22.7048 39.3048 24.731V25.3088C39.3048 27.4025 39.7626 29.241 40.6931 30.8319C41.6161 32.4228 42.9069 33.6535 44.5653 34.5465C46.2237 35.432 48.1148 35.8822 50.2385 35.8822C51.9119 35.8822 53.4728 35.5896 54.9211 34.9967C56.3694 34.4039 57.6151 33.4959 58.6582 32.2727L60.7519 34.6816C59.5287 36.1449 58.0053 37.263 56.1743 38.0284C54.3433 38.7939 52.3322 39.1766 50.1334 39.1766V39.1691Z" fill="#8FFFEF"/>
<path d="M69.2172 49.3149C67.9265 49.3149 66.6958 49.1048 65.5326 48.6845C64.362 48.2643 63.3639 47.6339 62.5234 46.801L64.2494 44.0244C64.9473 44.6848 65.7052 45.2026 66.5232 45.5703C67.3411 45.938 68.2567 46.1181 69.2697 46.1181C70.4929 46.1181 71.5435 45.7804 72.4365 45.0975C73.322 44.4146 74.17 43.2214 74.9729 41.518L76.7514 37.4882L77.1717 36.9104L88.473 11.4336H92.1351L78.3723 42.1934C77.6069 43.9719 76.7589 45.3827 75.8359 46.4333C74.9129 47.4763 73.9073 48.2193 72.8267 48.6545C71.7461 49.0897 70.5379 49.3074 69.2172 49.3074V49.3149ZM76.5413 39.687L63.8817 11.4336H67.7539L78.9502 36.6478L76.5413 39.6795V39.687Z" fill="#8FFFEF"/>
<path d="M107.262 39.1691C104.613 39.1691 102.234 38.5687 100.118 37.3681C98.0092 36.1674 96.3433 34.509 95.1201 32.4003C93.8969 30.2916 93.2891 27.8752 93.2891 25.1587C93.2891 22.4422 93.8969 19.9808 95.1201 17.8871C96.3433 15.7934 97.9942 14.1575 100.088 12.9719C102.182 11.7862 104.568 11.1934 107.254 11.1934C109.941 11.1934 112.387 11.7862 114.503 12.9719C116.612 14.1575 118.271 15.7934 119.471 17.8871C120.672 19.9808 121.28 22.4047 121.28 25.1587C121.28 27.9128 120.679 30.2916 119.471 32.4003C118.271 34.509 116.605 36.1674 114.473 37.3681C112.35 38.5687 109.941 39.1691 107.254 39.1691H107.262ZM107.262 35.8747C109.251 35.8747 111.007 35.432 112.545 34.539C114.076 33.6535 115.291 32.3928 116.184 30.7719C117.077 29.1509 117.52 27.2749 117.52 25.1512C117.52 23.0275 117.077 21.1064 116.184 19.5005C115.299 17.8946 114.083 16.6489 112.545 15.7634C111.007 14.8704 109.266 14.4277 107.314 14.4277C105.363 14.4277 103.615 14.8704 102.084 15.7634C100.546 16.6564 99.33 17.9021 98.4219 19.5005C97.5139 21.1064 97.0637 22.99 97.0637 25.1512C97.0637 27.3124 97.5139 29.1509 98.4219 30.7719C99.33 32.3928 100.546 33.6535 102.084 34.539C103.615 35.4245 105.348 35.8747 107.262 35.8747Z" fill="#8FFFEF"/>
<path d="M142.362 11.1777C144.59 11.1777 146.556 11.6055 148.245 12.461C149.933 13.3164 151.262 14.6147 152.222 16.3556C153.183 18.0966 153.663 20.2954 153.663 22.9443V38.8983H149.948V23.3121C149.948 20.4154 149.228 18.2317 147.78 16.7459C146.331 15.2675 144.298 14.5246 141.686 14.5246C139.735 14.5246 138.032 14.9148 136.583 15.7028C135.135 16.4907 134.017 17.6239 133.236 19.1022C132.449 20.588 132.058 22.374 132.058 24.4677V38.9058H128.344V11.4404H131.901V18.9746L131.323 17.5638C132.193 15.5752 133.589 14.0143 135.51 12.8812C137.431 11.7481 139.713 11.1777 142.362 11.1777Z" fill="#8FFFEF"/>
<path d="M174.116 39.1698C171.497 39.1698 169.156 38.577 167.077 37.3913C164.999 36.2057 163.37 34.5547 162.185 32.4461C160.999 30.3374 160.406 27.906 160.406 25.152C160.406 22.3979 160.999 19.9215 162.185 17.8279C163.37 15.7342 164.999 14.1058 167.077 12.9351C169.149 11.7645 171.497 11.1791 174.116 11.1791C176.525 11.1791 178.679 11.7194 180.578 12.8C182.476 13.8806 183.992 15.4565 185.133 17.5352C186.266 19.6139 186.829 22.1503 186.829 25.1445C186.829 28.1386 186.273 30.6376 185.155 32.7312C184.037 34.8249 182.529 36.4233 180.63 37.5189C178.732 38.6145 176.555 39.1698 174.116 39.1698ZM174.379 35.8755C176.33 35.8755 178.086 35.4327 179.64 34.5397C181.193 33.6467 182.416 32.3935 183.302 30.7726C184.195 29.1517 184.637 27.2757 184.637 25.152C184.637 23.0283 184.195 21.1072 183.302 19.5013C182.416 17.8954 181.193 16.6497 179.64 15.7642C178.086 14.8787 176.338 14.4284 174.379 14.4284C172.42 14.4284 170.732 14.8712 169.201 15.7642C167.663 16.6572 166.447 17.9029 165.539 19.5013C164.631 21.1072 164.181 22.9908 164.181 25.152C164.181 27.3132 164.631 29.1517 165.539 30.7726C166.447 32.3935 167.663 33.6542 169.201 34.5397C170.732 35.4252 172.466 35.8755 174.379 35.8755ZM184.735 38.9072V30.6376L185.103 25.0919L184.577 19.5463V0.0878906H188.292V38.9072H184.735Z" fill="#8FFFEF"/>
<path d="M225.054 38.9057V2.28516H228.243L244.985 30.8462H243.312L259.896 2.28516H263.085V38.9057H259.371V8.09342H260.256L244.978 34.2531H243.147L227.763 8.09342H228.754V38.9057H225.039H225.054Z" fill="#8FFFEF"/>
<path d="M285.376 39.1691C282.516 39.1691 280.003 38.5687 277.841 37.3681C275.68 36.1674 273.984 34.509 272.769 32.4003C271.545 30.2916 270.938 27.8752 270.938 25.1587C270.938 22.4422 271.523 20.0333 272.693 17.9397C273.864 15.846 275.47 14.2026 277.504 12.9944C279.545 11.7937 281.834 11.1934 284.385 11.1934C286.936 11.1934 289.255 11.7787 291.266 12.9493C293.27 14.12 294.846 15.7559 296.002 17.8646C297.15 19.9733 297.728 22.4047 297.728 25.1662C297.728 25.3388 297.72 25.5264 297.698 25.714C297.683 25.9091 297.668 26.1042 297.668 26.3144H273.759V23.5378H295.679L294.216 24.6334C294.216 22.6448 293.788 20.8738 292.932 19.3204C292.077 17.7671 290.921 16.5589 289.45 15.6809C287.987 14.8104 286.291 14.3751 284.378 14.3751C282.464 14.3751 280.806 14.8104 279.305 15.6809C277.804 16.5514 276.633 17.7746 275.8 19.3429C274.96 20.9113 274.547 22.7048 274.547 24.731V25.3088C274.547 27.4025 275.005 29.241 275.935 30.8319C276.858 32.4228 278.149 33.6535 279.807 34.5465C281.466 35.432 283.357 35.8822 285.481 35.8822C287.154 35.8822 288.715 35.5896 290.163 34.9967C291.612 34.4039 292.857 33.4959 293.9 32.2727L295.994 34.6816C294.771 36.1449 293.248 37.263 291.417 38.0284C289.585 38.7939 287.574 39.1766 285.376 39.1766V39.1691Z" fill="#8FFFEF"/>
<path d="M316.446 39.1691C313.587 39.1691 311.073 38.5687 308.912 37.3681C306.75 36.1674 305.055 34.509 303.839 32.4003C302.616 30.2916 302.008 27.8752 302.008 25.1587C302.008 22.4422 302.593 20.0333 303.764 17.9397C304.934 15.846 306.54 14.2026 308.574 12.9944C310.615 11.7937 312.904 11.1934 315.455 11.1934C318.007 11.1934 320.326 11.7787 322.337 12.9493C324.34 14.12 325.916 15.7559 327.072 17.8646C328.22 19.9733 328.798 22.4047 328.798 25.1662C328.798 25.3388 328.79 25.5264 328.768 25.714C328.753 25.9091 328.738 26.1042 328.738 26.3144H304.829V23.5378H326.749L325.286 24.6334C325.286 22.6448 324.858 20.8738 324.003 19.3204C323.147 17.7671 321.992 16.5589 320.521 15.6809C319.057 14.8104 317.361 14.3751 315.448 14.3751C313.534 14.3751 311.876 14.8104 310.375 15.6809C308.874 16.5514 307.704 17.7746 306.871 19.3429C306.03 20.9113 305.617 22.7048 305.617 24.731V25.3088C305.617 27.4025 306.075 29.241 307.006 30.8319C307.929 32.4228 309.219 33.6535 310.878 34.5465C312.536 35.432 314.427 35.8822 316.551 35.8822C318.224 35.8822 319.785 35.5896 321.234 34.9967C322.682 34.4039 323.928 33.4959 324.971 32.2727L327.064 34.6816C325.841 36.1449 324.318 37.263 322.487 38.0284C320.656 38.7939 318.645 39.1766 316.446 39.1766V39.1691Z" fill="#8FFFEF"/>
<path d="M331.57 14.5262V11.442H348.575V14.5262H331.57ZM344.545 39.1701C341.964 39.1701 339.975 38.4722 338.579 37.0764C337.183 35.6806 336.486 33.7145 336.486 31.1631V5.37109H340.2V30.953C340.2 32.5589 340.613 33.7971 341.431 34.6676C342.249 35.538 343.427 35.9733 344.965 35.9733C346.601 35.9733 347.967 35.5005 349.048 34.5625L350.353 37.234C349.618 37.8944 348.74 38.3821 347.712 38.6973C346.684 39.0125 345.626 39.1701 344.545 39.1701Z" fill="#8FFFEF"/>
<path d="M358.451 5.37055C357.685 5.37055 357.04 5.1079 356.515 4.58261C355.989 4.05731 355.727 3.43446 355.727 2.69905C355.727 1.96364 355.989 1.34829 356.515 0.838004C357.04 0.335221 357.685 0.0800781 358.451 0.0800781C359.216 0.0800781 359.861 0.320213 360.387 0.815491C360.912 1.30327 361.175 1.91111 361.175 2.64652C361.175 3.41195 360.919 4.05731 360.417 4.58261C359.914 5.1079 359.254 5.37055 358.458 5.37055H358.451ZM356.567 38.9069V11.4415H360.282V38.9069H356.567Z" fill="#8FFFEF"/>
<path d="M384.135 11.1777C386.364 11.1777 388.33 11.6055 390.018 12.461C391.707 13.3164 393.035 14.6147 393.996 16.3556C394.956 18.0966 395.436 20.2954 395.436 22.9443V38.8983H391.722V23.3121C391.722 20.4154 391.001 18.2317 389.553 16.7459C388.105 15.2675 386.071 14.5246 383.46 14.5246C381.509 14.5246 379.805 14.9148 378.357 15.7028C376.908 16.4907 375.79 17.6239 375.01 19.1022C374.222 20.588 373.832 22.374 373.832 24.4677V38.9058H370.117V11.4404H373.674V18.9746L373.096 17.5638C373.967 15.5752 375.363 14.0143 377.284 12.8812C379.205 11.7481 381.486 11.1777 384.135 11.1777Z" fill="#8FFFEF"/>
<path d="M416.011 37.8569C413.392 37.8569 411.043 37.294 408.949 36.1534C406.855 35.0203 405.212 33.4444 404.004 31.4182C402.803 29.3996 402.195 27.0733 402.195 24.4618C402.195 21.8504 402.796 19.5391 404.004 17.5279C405.204 15.5243 406.855 13.9634 408.949 12.8453C411.043 11.7272 413.399 11.1719 416.011 11.1719C418.449 11.1719 420.648 11.6747 422.599 12.6877C424.55 13.7008 426.104 15.2016 427.252 17.1903C428.4 19.1789 428.978 21.6027 428.978 24.4618C428.978 27.3209 428.4 29.7448 427.252 31.7334C426.104 33.722 424.55 35.2379 422.599 36.2885C420.648 37.3316 418.449 37.8569 416.011 37.8569ZM416.693 49.3158C414.18 49.3158 411.778 48.9481 409.474 48.2202C407.171 47.4848 405.31 46.4417 403.876 45.0834L405.76 42.2618C407.051 43.41 408.649 44.3255 410.548 45.0084C412.446 45.6913 414.465 46.029 416.588 46.029C420.078 46.029 422.637 45.2185 424.28 43.5976C425.916 41.9767 426.742 39.4553 426.742 36.0408V29.1895L427.267 24.4844L426.899 19.7792V11.4645H430.456V35.5831C430.456 40.3258 429.293 43.8077 426.974 46.0215C424.655 48.2352 421.226 49.3458 416.693 49.3458V49.3158ZM416.378 34.5625C418.404 34.5625 420.198 34.1348 421.766 33.2793C423.335 32.4238 424.573 31.2381 425.481 29.7223C426.389 28.2064 426.839 26.4505 426.839 24.4618C426.839 22.4732 426.389 20.7322 425.481 19.2314C424.573 17.7306 423.335 16.5524 421.766 15.7044C420.198 14.8489 418.397 14.4212 416.378 14.4212C414.36 14.4212 412.604 14.8489 411.013 15.7044C409.422 16.5599 408.191 17.7381 407.298 19.2314C406.405 20.7322 405.962 22.4732 405.962 24.4618C405.962 26.4505 406.405 28.2064 407.298 29.7223C408.184 31.2381 409.422 32.4238 411.013 33.2793C412.596 34.1348 414.39 34.5625 416.378 34.5625Z" fill="#8FFFEF"/>
<path d="M447.657 39.1685C445.391 39.1685 443.245 38.8458 441.219 38.2004C439.192 37.5551 437.609 36.7446 436.461 35.7691L438.134 32.8424C439.252 33.6829 440.678 34.4033 442.427 35.0111C444.168 35.619 445.999 35.9266 447.92 35.9266C450.539 35.9266 452.422 35.5139 453.571 34.6959C454.719 33.878 455.297 32.7899 455.297 31.4241C455.297 30.411 454.974 29.6156 454.328 29.0453C453.683 28.475 452.835 28.0322 451.792 27.7395C450.749 27.4469 449.578 27.1917 448.288 26.9816C446.997 26.7715 445.714 26.5314 444.445 26.2462C443.17 25.9685 442.014 25.5558 440.963 25.0155C439.92 24.4752 439.072 23.7323 438.427 22.7943C437.782 21.8562 437.459 20.5955 437.459 19.0271C437.459 17.4588 437.879 16.183 438.712 14.9974C439.553 13.8117 440.776 12.8812 442.404 12.1983C444.025 11.5154 446.006 11.1777 448.34 11.1777C450.119 11.1777 451.897 11.4104 453.676 11.8831C455.454 12.3559 456.917 12.9712 458.073 13.7442L456.452 16.7234C455.229 15.8829 453.923 15.2825 452.527 14.9148C451.132 14.5471 449.736 14.367 448.34 14.367C445.864 14.367 444.04 14.7948 442.877 15.6502C441.706 16.5057 441.121 17.5938 441.121 18.9221C441.121 19.9652 441.444 20.7906 442.089 21.3835C442.734 21.9763 443.59 22.4416 444.656 22.7717C445.721 23.1019 446.884 23.3721 448.16 23.5822C449.436 23.7923 450.704 24.0475 451.98 24.3401C453.255 24.6403 454.419 25.038 455.484 25.5408C456.55 26.0436 457.405 26.764 458.051 27.687C458.696 28.61 459.019 29.8257 459.019 31.3266C459.019 32.9325 458.576 34.3207 457.683 35.4839C456.797 36.6545 455.507 37.5626 453.811 38.2004C452.122 38.8458 450.074 39.1685 447.665 39.1685H447.657Z" fill="#8FFFEF"/>
</g>
<defs>
<clipPath id="clip0_2375_254">
<rect width="458.688" height="49.2277" fill="white" transform="translate(0.320312 0.0878906)"/>
</clipPath>
</defs>
</svg>
