<svg width="1116" height="122" viewBox="0 0 1116 122" fill="none" xmlns="http://www.w3.org/2000/svg">
<g clip-path="url(#clip0_2375_241)">
<path d="M409.628 75.6361C403.85 75.6361 399.438 71.0735 399.438 65.2878C399.438 59.502 403.85 54.9395 409.628 54.9395C415.406 54.9395 420.127 59.502 420.127 65.2878C420.127 71.0735 415.564 75.6361 409.628 75.6361Z" fill="#8FFFEF"/>
<path d="M86.5564 93.468H1.06086V113.474H86.5639C108.514 113.474 121.616 101.122 121.616 80.4257C121.616 59.729 109.827 47.8423 86.5639 47.8423H35.2276C26.7028 47.8423 21.4123 42.7245 21.4123 34.4923C21.4123 26.2602 26.6352 20.9848 35.3776 20.9848H116.055V0.978516H35.3776C14.2758 0.978516 0.640625 13.4055 0.640625 32.6388C0.640625 51.8721 14.4784 64.7568 35.07 64.7568H86.5564C97.1073 64.7568 102.683 69.6946 102.683 79.0299C102.683 88.3651 96.6571 93.4605 86.5564 93.4605V93.468Z" fill="#8FFFEF"/>
<path d="M234.274 47.8418H171.727V64.7638H234.274V47.8418Z" fill="#8FFFEF"/>
<path d="M238.593 93.468H157.818V20.9848H238.436V0.978516H137.977V113.467H238.593V93.468Z" fill="#8FFFEF"/>
<path d="M355.577 93.468H274.802V20.9848H355.42V0.978516H254.953V113.467H355.577V93.468Z" fill="#8FFFEF"/>
<path d="M351.251 47.8418H288.703V64.7638H351.251V47.8418Z" fill="#8FFFEF"/>
<path d="M560.417 88.9727L482.726 11.8819C479.912 9.06786 477.413 7.86719 474.359 7.86719C468.13 7.86719 464.258 12.3772 464.258 19.6413V120.28H483.093V39.6325L560.484 117.474C563.291 120.28 566.225 121.646 569.459 121.646C575.41 121.646 579.26 117.023 579.26 109.872V8.32494H560.424V88.9727H560.417Z" fill="#8FFFEF"/>
<path d="M617.117 28.9835H696.699V9.23242H597.523V120.28H696.849V100.529H617.117V28.9835Z" fill="#8FFFEF"/>
<path d="M692.596 55.4883H630.852V72.1927H692.596V55.4883Z" fill="#8FFFEF"/>
<path d="M833.03 49.7702C833.03 24.7661 817.557 9.23242 792.65 9.23242H713.008V120.28H732.609V28.9835H792.65C806.345 28.9835 813.587 36.2776 813.587 50.0704C813.587 63.8631 806.345 72.0727 792.65 72.0727H746.334V89.5425H787.84L815.838 120.28H843.829L810.375 86.5183C824.776 80.8602 833.03 67.4876 833.03 49.7702Z" fill="#8FFFEF"/>
<path d="M898.478 72.2003H948.381V100.529H901.277C881.473 100.529 867.103 85.3852 867.103 64.531C867.103 43.6768 881.473 28.991 901.277 28.991H961.438V9.23242H901.277C869.527 9.23242 847.352 31.595 847.352 63.6155C847.352 95.636 870.532 120.28 901.277 120.28H968.282V55.4884H898.478V72.1928V72.2003Z" fill="#8FFFEF"/>
<path d="M1090.44 9.23242L1047.32 60.0885L1004.36 9.23242H977.789L1036.76 78.1511V120.28H1056.52V78.1511L1115.65 9.23242H1090.44Z" fill="#8FFFEF"/>
</g>
<defs>
<clipPath id="clip0_2375_241">
<rect width="1115.01" height="120.668" fill="white" transform="translate(0.640625 0.978516)"/>
</clipPath>
</defs>
</svg>
