<svg width="209" height="102" viewBox="0 0 209 102" fill="none" xmlns="http://www.w3.org/2000/svg">
<g id="Layer_1" clip-path="url(#clip0_2375_196)">
<path id="Vector" d="M0 34.0256V1.92578H14.113C17.7583 1.92578 20.5865 2.6452 22.5941 4.08061C24.6053 5.51945 25.6074 7.55096 25.6074 10.1786C25.6074 11.9223 25.1954 13.3885 24.3679 14.5807C23.5403 15.7729 22.4195 16.6739 21.002 17.2871C19.5844 17.8969 18.0341 18.2052 16.3511 18.2052L17.1472 17.1055C19.2352 17.1055 21.0334 17.4207 22.5452 18.0442C24.0571 18.6711 25.2338 19.603 26.0752 20.8431C26.9167 22.0798 27.3357 23.618 27.3357 25.4508C27.3357 28.1709 26.3127 30.2812 24.2736 31.7783C22.231 33.2753 19.1549 34.0256 15.0418 34.0256H0ZM3.46017 31.2267H15.0034C17.87 31.2267 20.0662 30.7437 21.592 29.781C23.1179 28.8184 23.8825 27.2836 23.8825 25.1733C23.8825 23.063 23.1179 21.5728 21.592 20.6101C20.0662 19.6475 17.87 19.1644 15.0034 19.1644H3.08308V16.3656H13.8791C16.4943 16.3656 18.5299 15.8757 19.9789 14.8993C21.4279 13.9195 22.1507 12.467 22.1507 10.5417C22.1507 8.61638 21.4244 7.12616 19.9789 6.16351C18.5299 5.20085 16.4978 4.71781 13.8791 4.71781H3.46017V31.2233V31.2267Z" fill="#8FFFEF"/>
<path id="Vector_2" d="M44.4952 34.2544C41.9393 34.2544 39.6977 33.7268 37.7634 32.6717C35.8291 31.6165 34.3207 30.164 33.2313 28.314C32.1384 26.4641 31.5938 24.3469 31.5938 21.9626C31.5938 19.5782 32.114 17.4679 33.158 15.6351C34.202 13.7989 35.637 12.3566 37.4596 11.3015C39.2822 10.2463 41.3318 9.71875 43.6048 9.71875C45.8779 9.71875 47.9589 10.2292 49.75 11.2535C51.5412 12.2778 52.9518 13.7167 53.9784 15.5632C55.0084 17.4131 55.5217 19.544 55.5217 21.9592C55.5217 22.1133 55.5147 22.2743 55.4972 22.4422C55.4798 22.6101 55.4728 22.7848 55.4728 22.9698H34.1147V20.5409H53.6956L52.3862 21.5035C52.3862 19.7598 52.0056 18.2113 51.241 16.8479C50.4763 15.4878 49.4428 14.4258 48.1334 13.6619C46.8241 12.8979 45.3122 12.5142 43.6014 12.5142C41.8905 12.5142 40.4065 12.8979 39.0693 13.6619C37.7285 14.4258 36.6845 15.4947 35.9373 16.8718C35.1901 18.249 34.8165 19.8215 34.8165 21.596V22.0996C34.8165 23.9324 35.2285 25.546 36.056 26.9369C36.88 28.3277 38.0323 29.4137 39.5127 30.1914C40.9931 30.969 42.6831 31.3596 44.5825 31.3596C46.0769 31.3596 47.47 31.0992 48.7654 30.5785C50.0573 30.0578 51.1746 29.2664 52.1069 28.1941L53.9784 30.3044C52.889 31.5891 51.5238 32.5655 49.8897 33.2403C48.2556 33.9152 46.454 34.2475 44.4917 34.2475L44.4952 34.2544Z" fill="#8FFFEF"/>
<path id="Vector_3" d="M61.5471 43.1521C60.3949 43.1521 59.295 42.9672 58.251 42.6006C57.207 42.234 56.3097 41.6825 55.5625 40.9494L57.1058 38.517C57.7273 39.096 58.4047 39.5482 59.1379 39.8702C59.8711 40.1922 60.6882 40.3533 61.5925 40.3533C62.6819 40.3533 63.6246 40.0552 64.4207 39.4591C65.2133 38.863 65.9709 37.8147 66.6867 36.3177L68.2754 32.7857L68.649 32.2821L78.7432 9.94922H82.0148L69.7244 36.9138C69.0401 38.4725 68.2824 39.7126 67.4584 40.6273C66.6344 41.5454 65.737 42.1929 64.7733 42.5766C63.8062 42.9569 62.7307 43.1487 61.5471 43.1487V43.1521ZM68.0904 34.7144L56.7811 9.95264H60.2412L70.2412 32.056L68.0904 34.7144Z" fill="#8FFFEF"/>
<path id="Vector_4" d="M95.5337 34.2544C93.1664 34.2544 91.04 33.7268 89.1545 32.6717C87.269 31.6165 85.7816 30.164 84.6922 28.314C83.5994 26.4641 83.0547 24.3469 83.0547 21.9626C83.0547 19.5782 83.5994 17.4234 84.6922 15.5872C85.7816 13.7544 87.2621 12.3155 89.1301 11.2775C91.0016 10.2395 93.1349 9.71875 95.5337 9.71875C97.9324 9.71875 100.122 10.2395 102.007 11.2775C103.893 12.3155 105.373 13.7544 106.448 15.5872C107.524 17.4234 108.062 19.5474 108.062 21.9626C108.062 24.3778 107.524 26.4641 106.448 28.314C105.373 30.164 103.886 31.6165 101.986 32.6717C100.087 33.7268 97.9359 34.2544 95.5371 34.2544H95.5337ZM95.5337 31.3664C97.3074 31.3664 98.8821 30.9759 100.254 30.1982C101.626 29.4206 102.709 28.3175 103.501 26.8958C104.298 25.474 104.692 23.8297 104.692 21.966C104.692 20.1024 104.294 18.4203 103.501 17.0123C102.709 15.6077 101.623 14.5149 100.254 13.7338C98.8821 12.9561 97.3248 12.5656 95.579 12.5656C93.8333 12.5656 92.276 12.9561 90.9038 13.7338C89.5316 14.5149 88.4422 15.6077 87.6322 17.0123C86.8221 18.4169 86.4171 20.0681 86.4171 21.966C86.4171 23.8639 86.8221 25.474 87.6322 26.8958C88.4422 28.3175 89.5316 29.4171 90.9038 30.1982C92.276 30.9759 93.8158 31.3664 95.5302 31.3664H95.5337Z" fill="#8FFFEF"/>
<path id="Vector_5" d="M126.892 9.72266C128.885 9.72266 130.638 10.0961 132.15 10.8463C133.662 11.5966 134.845 12.7339 135.701 14.2619C136.556 15.7898 136.986 17.7151 136.986 20.0378V34.0219H133.665V20.3564C133.665 17.8178 133.019 15.9028 131.727 14.601C130.432 13.3026 128.62 12.6517 126.284 12.6517C124.538 12.6517 123.019 12.9943 121.727 13.6829C120.436 14.3715 119.437 15.365 118.735 16.6633C118.033 17.9651 117.684 19.5307 117.684 21.3636V34.0185H114.367V9.95219H117.545V16.5571L117.031 15.3204C117.81 13.5767 119.056 12.2098 120.771 11.2163C122.485 10.2228 124.524 9.72608 126.892 9.72608V9.72266Z" fill="#8FFFEF"/>
<path id="Vector_6" d="M155.261 34.2547C152.925 34.2547 150.826 33.7339 148.976 32.6959C147.122 31.6579 145.666 30.2122 144.604 28.3623C143.546 26.5123 143.016 24.3815 143.016 21.9663C143.016 19.5511 143.546 17.3791 144.604 15.5463C145.662 13.7101 147.118 12.2849 148.976 11.2572C150.83 10.2329 152.925 9.72244 155.261 9.72244C157.411 9.72244 159.332 10.1986 161.032 11.1442C162.729 12.0931 164.084 13.4771 165.1 15.2928C166.113 17.1119 166.619 19.3353 166.619 21.9663C166.619 24.5973 166.12 26.7795 165.124 28.6158C164.126 30.452 162.782 31.8497 161.081 32.8124C159.384 33.775 157.443 34.2581 155.264 34.2581L155.261 34.2547ZM155.495 31.3667C157.24 31.3667 158.805 30.9762 160.191 30.1985C161.577 29.4208 162.67 28.3177 163.462 26.896C164.258 25.4743 164.653 23.8299 164.653 21.9663C164.653 20.1026 164.255 18.4206 163.462 17.0126C162.67 15.608 161.577 14.5151 160.191 13.7341C158.805 12.9564 157.237 12.5659 155.495 12.5659C153.752 12.5659 152.237 12.9564 150.868 13.7341C149.496 14.5151 148.407 15.608 147.597 17.0126C146.787 18.4171 146.382 20.0684 146.382 21.9663C146.382 23.8642 146.787 25.4743 147.597 26.896C148.407 28.3177 149.496 29.4174 150.868 30.1985C152.24 30.9762 153.78 31.3667 155.495 31.3667ZM164.747 34.0251V26.7795L165.076 21.9183L164.608 17.0571V0H167.925V34.0251H164.747Z" fill="#8FFFEF"/>
<path id="Vector_7" d="M0 92.8733V60.7734H2.85263L17.8071 85.8092H16.3127L31.1276 60.7734H33.9802V92.8733H30.6632V65.8642H31.4558L17.8106 88.7931H16.1731L2.43015 65.8642H3.31702V92.8733H0Z" fill="#8FFFEF"/>
<path id="Vector_8" d="M53.8858 93.104C51.33 93.104 49.0884 92.5764 47.154 91.5213C45.2232 90.4661 43.7113 89.0136 42.6219 87.1636C41.5291 85.3137 40.9844 83.1966 40.9844 80.8122C40.9844 78.4278 41.5046 76.3175 42.5486 74.4847C43.5926 72.6485 45.0276 71.2062 46.8503 70.1511C48.6729 69.0959 50.7224 68.5684 52.9955 68.5684C55.2685 68.5684 57.3495 69.0788 59.1407 70.1031C60.9319 71.1274 62.3425 72.5663 63.369 74.4128C64.399 76.2627 64.9123 78.3936 64.9123 80.8088C64.9123 80.9629 64.9053 81.1239 64.8878 81.2918C64.8704 81.4597 64.8634 81.6344 64.8634 81.8194H43.5053V79.3905H63.0862L61.7768 80.3531C61.7768 78.6094 61.3962 77.0609 60.6316 75.6975C59.8669 74.3374 58.8334 73.2754 57.5241 72.5115C56.2147 71.7475 54.7029 71.3638 52.992 71.3638C51.2811 71.3638 49.7972 71.7475 48.4599 72.5115C47.1191 73.2754 46.0751 74.3443 45.3279 75.7214C44.5807 77.0986 44.2071 78.6711 44.2071 80.4456V80.9492C44.2071 82.782 44.6191 84.3956 45.4466 85.7865C46.2707 87.1774 47.4229 88.2633 48.9033 89.041C50.3838 89.8186 52.0737 90.2092 53.9731 90.2092C55.4675 90.2092 56.8607 89.9488 58.156 89.4281C59.4479 88.9074 60.5653 88.116 61.4975 87.0437L63.369 89.154C62.2796 90.4387 60.9144 91.4151 59.2803 92.09C57.6463 92.7648 55.8446 93.0971 53.8823 93.0971L53.8858 93.104Z" fill="#8FFFEF"/>
<path id="Vector_9" d="M81.6436 93.104C79.0878 93.104 76.8462 92.5764 74.9118 91.5213C72.9775 90.4661 71.4691 89.0136 70.3797 87.1636C69.2869 85.3137 68.7422 83.1966 68.7422 80.8122C68.7422 78.4278 69.2624 76.3175 70.3064 74.4847C71.3504 72.6485 72.7855 71.2062 74.6081 70.1511C76.4307 69.0959 78.4802 68.5684 80.7533 68.5684C83.0263 68.5684 85.1073 69.0788 86.8985 70.1031C88.6897 71.1274 90.1003 72.5663 91.1268 74.4128C92.1568 76.2627 92.6701 78.3936 92.6701 80.8088C92.6701 80.9629 92.6631 81.1239 92.6457 81.2918C92.6282 81.4597 92.6212 81.6344 92.6212 81.8194H71.2631V79.3905H90.844L89.5346 80.3531C89.5346 78.6094 89.1541 77.0609 88.3894 75.6975C87.6247 74.3374 86.5912 73.2754 85.2819 72.5115C83.9725 71.7475 82.4607 71.3638 80.7498 71.3638C79.0389 71.3638 77.555 71.7475 76.2177 72.5115C74.8769 73.2754 73.8329 74.3443 73.0857 75.7214C72.3385 77.0986 71.9649 78.6711 71.9649 80.4456V80.9492C71.9649 82.782 72.3769 84.3956 73.2044 85.7865C74.0285 87.1774 75.1807 88.2633 76.6611 89.041C78.1416 89.8186 79.8315 90.2092 81.7309 90.2092C83.2253 90.2092 84.6185 89.9488 85.9139 89.4281C87.2058 88.9074 88.3231 88.116 89.2553 87.0437L91.1268 89.154C90.0374 90.4387 88.6722 91.4151 87.0382 92.09C85.4041 92.7648 83.6024 93.0971 81.6401 93.0971L81.6436 93.104Z" fill="#8FFFEF"/>
<path id="Vector_10" d="M95.1562 71.5032V68.7968H110.345V71.5032H95.1562ZM106.748 93.0995C104.44 93.0995 102.667 92.4897 101.42 91.2667C100.174 90.0437 99.5522 88.3171 99.5522 86.0835V63.4766H102.869V85.8985C102.869 87.3065 103.236 88.389 103.969 89.1564C104.702 89.9204 105.753 90.3041 107.122 90.3041C108.585 90.3041 109.8 89.893 110.767 89.0673L111.937 91.4072C111.284 91.9896 110.495 92.4178 109.577 92.6919C108.658 92.9659 107.716 93.1029 106.748 93.1029V93.0995Z" fill="#8FFFEF"/>
<path id="Vector_11" d="M119.172 63.4794C118.488 63.4794 117.912 63.2498 117.444 62.7908C116.976 62.3317 116.742 61.7801 116.742 61.1395C116.742 60.4989 116.976 59.9542 117.444 59.5123C117.912 59.0703 118.488 58.8477 119.172 58.8477C119.857 58.8477 120.433 59.0635 120.901 59.4883C121.369 59.9165 121.602 60.4509 121.602 61.0916C121.602 61.7664 121.376 62.3283 120.925 62.7873C120.475 63.2464 119.888 63.4759 119.172 63.4759V63.4794ZM117.489 92.8728V68.7996H120.806V92.8728H117.489Z" fill="#8FFFEF"/>
<path id="Vector_12" d="M142.118 68.5718C144.112 68.5718 145.865 68.9452 147.376 69.6955C148.888 70.4457 150.072 71.5831 150.927 73.111C151.783 74.6389 152.212 76.5642 152.212 78.8869V92.871H148.892V79.2055C148.892 76.667 148.246 74.7519 146.954 73.4501C145.659 72.1518 143.846 71.5009 141.511 71.5009C139.765 71.5009 138.246 71.8434 136.954 72.532C135.662 73.2206 134.664 74.2141 133.962 75.5125C133.26 76.8143 132.911 78.3799 132.911 80.2127V92.8676H129.594V68.7945H132.771V75.3994L132.258 74.1627C133.036 72.419 134.283 71.0521 135.997 70.0586C137.712 69.0651 139.751 68.5684 142.118 68.5684V68.5718Z" fill="#8FFFEF"/>
<path id="Vector_13" d="M170.589 91.9564C168.253 91.9564 166.151 91.4596 164.28 90.4661C162.408 89.4726 160.939 88.0886 159.863 86.314C158.788 84.5429 158.25 82.508 158.25 80.2161C158.25 77.9242 158.788 75.8996 159.863 74.1387C160.939 72.3813 162.408 71.0144 164.28 70.0346C166.151 69.0582 168.253 68.5684 170.589 68.5684C172.772 68.5684 174.734 69.0103 176.48 69.8976C178.225 70.7849 179.612 72.0969 180.638 73.8407C181.668 75.581 182.181 77.7084 182.181 80.2161C182.181 82.7238 181.668 84.8478 180.638 86.5915C179.608 88.3353 178.222 89.6645 176.48 90.5792C174.734 91.4973 172.772 91.9564 170.589 91.9564ZM171.197 102.001C168.955 102.001 166.804 101.679 164.748 101.038C162.691 100.394 161.026 99.4794 159.748 98.2872L161.431 95.8104C162.583 96.821 164.008 97.6226 165.708 98.2187C167.405 98.8148 169.207 99.1129 171.106 99.1129C174.221 99.1129 176.511 98.4037 177.978 96.982C179.441 95.5603 180.174 93.3507 180.174 90.3565V84.3476L180.642 80.2195L180.313 76.0914V68.8013H183.491V89.942C183.491 94.0975 182.454 97.1499 180.383 99.0889C178.313 101.031 175.251 102.001 171.2 102.001H171.197ZM170.918 89.0684C172.726 89.0684 174.329 88.695 175.732 87.9447C177.136 87.1945 178.239 86.1565 179.049 84.8272C179.859 83.498 180.265 81.9598 180.265 80.2195C180.265 78.4792 179.859 76.9479 179.049 75.6324C178.239 74.3169 177.133 73.2857 175.732 72.5389C174.332 71.792 172.726 71.4152 170.918 71.4152C169.109 71.4152 167.545 71.7886 166.127 72.5389C164.709 73.2891 163.603 74.3203 162.81 75.6324C162.014 76.9479 161.619 78.4758 161.619 80.2195C161.619 81.9633 162.017 83.498 162.81 84.8272C163.603 86.1565 164.709 87.1945 166.127 87.9447C167.545 88.695 169.14 89.0684 170.918 89.0684Z" fill="#8FFFEF"/>
<path id="Vector_14" d="M198.863 93.104C196.838 93.104 194.921 92.8231 193.112 92.2578C191.303 91.6926 189.886 90.98 188.859 90.127L190.357 87.5576C191.352 88.2907 192.63 88.9279 194.191 89.4624C195.748 89.9968 197.386 90.264 199.097 90.264C201.433 90.264 203.116 89.9043 204.146 89.1849C205.176 88.4655 205.689 87.5131 205.689 86.3175C205.689 85.4302 205.399 84.7347 204.823 84.2312C204.247 83.7276 203.493 83.3439 202.557 83.0835C201.621 82.8231 200.577 82.6005 199.425 82.4189C198.273 82.2339 197.127 82.0215 195.989 81.7783C194.851 81.535 193.817 81.1753 192.882 80.6991C191.946 80.223 191.192 79.5755 190.616 78.7499C190.04 77.9242 189.753 76.8246 189.753 75.4474C189.753 74.0702 190.127 72.9568 190.874 71.9154C191.621 70.8774 192.721 70.0586 194.17 69.4625C195.619 68.8664 197.386 68.5684 199.474 68.5684C201.062 68.5684 202.651 68.7739 204.24 69.1884C205.829 69.5995 207.138 70.1442 208.164 70.8157L206.715 73.4296C205.623 72.6965 204.456 72.1689 203.21 71.8469C201.963 71.5248 200.717 71.3638 199.47 71.3638C197.257 71.3638 195.63 71.7372 194.586 72.4875C193.542 73.2377 193.021 74.1935 193.021 75.3549C193.021 76.273 193.308 76.9924 193.884 77.5097C194.46 78.0304 195.225 78.4347 196.174 78.7259C197.124 79.0171 198.168 79.2535 199.306 79.435C200.444 79.62 201.579 79.8427 202.718 80.0996C203.856 80.36 204.9 80.7129 205.849 81.1548C206.799 81.6001 207.564 82.2271 208.14 83.0356C208.716 83.8475 209.006 84.9095 209.006 86.2215C209.006 87.6296 208.608 88.8423 207.815 89.8666C207.023 90.8909 205.867 91.6857 204.359 92.251C202.847 92.8162 201.017 93.0971 198.866 93.0971L198.863 93.104Z" fill="#8FFFEF"/>
</g>
<defs>
<clipPath id="clip0_2375_196">
<rect width="209" height="102" fill="white"/>
</clipPath>
</defs>
</svg>
