<svg width="427" height="160" viewBox="0 0 427 160" fill="none" xmlns="http://www.w3.org/2000/svg">
<g clip-path="url(#clip0_2375_182)">
<path d="M6.20503 132.887C2.76202 132.887 0.132812 130.219 0.132812 126.837C0.132812 123.454 2.76202 120.787 6.20503 120.787C9.64804 120.787 12.4606 123.454 12.4606 126.837C12.4606 130.219 9.74194 132.887 6.20503 132.887Z" fill="#8FFFEF"/>
<path d="M51.1936 54.0713H0.250401V65.7674H51.198C64.277 65.7674 72.0841 58.5462 72.0841 46.4465C72.0841 34.3468 65.0595 27.3976 51.198 27.3976H20.6089C15.5293 27.3976 12.377 24.4056 12.377 19.5929C12.377 14.7802 15.4891 11.6961 20.6983 11.6961H68.7708V0H20.6983C8.12461 0 0 7.26508 0 18.5093C0 29.7535 8.24534 37.2862 20.515 37.2862H51.1936C57.4804 37.2862 60.8027 40.1729 60.8027 45.6305C60.8027 51.0881 57.2121 54.0669 51.1936 54.0669V54.0713Z" fill="#8FFFEF"/>
<path d="M139.215 27.3984H101.945V37.2914H139.215V27.3984Z" fill="#8FFFEF"/>
<path d="M141.781 54.0713H93.6506V11.6961H141.687V0H81.8281V65.763H141.781V54.0713Z" fill="#8FFFEF"/>
<path d="M211.489 54.0713H163.358V11.6961H211.395V0H151.531V65.763H211.489V54.0713Z" fill="#8FFFEF"/>
<path d="M208.918 27.3984H171.648V37.2914H208.918V27.3984Z" fill="#8FFFEF"/>
<path d="M96.0549 140.682L49.762 95.6127C48.0852 93.9676 46.5963 93.2656 44.7764 93.2656C41.0651 93.2656 38.7578 95.9023 38.7578 100.149V158.985H49.9811V111.836L96.0951 157.344C97.7675 158.985 99.5158 159.783 101.443 159.783C104.989 159.783 107.283 157.081 107.283 152.9V93.5332H96.0594V140.682H96.0549Z" fill="#8FFFEF"/>
<path d="M129.839 105.611H177.259V94.0645H118.164V158.985H177.348V147.438H129.839V105.611Z" fill="#8FFFEF"/>
<path d="M174.814 121.107H138.023V130.873H174.814V121.107Z" fill="#8FFFEF"/>
<path d="M258.485 117.764C258.485 103.146 249.265 94.0645 234.424 94.0645H186.969V158.985H198.648V105.611H234.424C242.585 105.611 246.899 109.876 246.899 117.939C246.899 126.003 242.585 130.802 234.424 130.802H206.826V141.015H231.558L248.241 158.985H264.919L244.986 139.247C253.566 135.94 258.485 128.122 258.485 117.764Z" fill="#8FFFEF"/>
<path d="M297.487 130.876H327.222V147.438H299.155C287.355 147.438 278.792 138.585 278.792 126.393C278.792 114.201 287.355 105.615 299.155 105.615H335.003V94.0684H299.155C280.237 94.0684 267.023 107.142 267.023 125.862C267.023 144.582 280.836 158.989 299.155 158.989H339.081V121.111H297.487V130.876Z" fill="#8FFFEF"/>
<path d="M411.872 94.0684L386.179 123.796L360.58 94.0684H344.742L379.888 134.355V158.985H391.657V134.355L426.892 94.0684H411.872Z" fill="#8FFFEF"/>
</g>
<defs>
<clipPath id="clip0_2375_182">
<rect width="426.893" height="159.783" fill="white"/>
</clipPath>
</defs>
</svg>
