<svg width="1920" height="1149" viewBox="0 0 1920 1149" fill="none" xmlns="http://www.w3.org/2000/svg">
<path opacity="0.3" d="M2593.7 0H-665.695V2.01174H-643.767L-665.695 3.86254V5.90446L-619.63 2.01174H-567.269L-665.695 10.7326V12.7745L-544.237 2.01174H-490.85L-665.695 18.2666V20.3085L-468.863 2.01174H-414.236L-665.695 26.6455V28.6975L-393.335 2.01174H-337.681L-597.217 29.0093H-665.695V31.021H-616.55L-665.695 36.1308V38.1828L-596.83 31.021H-521.979L-665.695 46.9641V49.0261L-503.46 31.021H-430.566L-665.695 59.1653V62.2634L-404.705 31.021H-329.467L-584.045 64.2449H-665.695V66.2567H-599.445L-665.695 74.8971V76.9692L-583.561 66.2567H-477.522L-665.695 93.2944V95.3867L-462.994 66.2567H-357.595L-638.807 111.35H-665.695V114.367H-657.617L-665.695 115.655V118.813L-637.936 114.367H-500.458L-665.695 144.131V146.264L-488.622 114.367H-347.773L-573.623 160.698H-665.695V162.71H-583.425L-665.695 179.578V181.741L-572.887 162.71H-402.672L-633.151 217.419H-665.695V219.431H-641.636L-665.695 225.144V228.463L-627.65 219.431H-437.094L-665.695 282.338V284.611L-428.823 219.431H-245.958L-466.849 290.535H-665.695V295.565H-482.481L-665.695 354.539V356.903L-475.12 295.565H-267.557L-493.697 381.768H-665.695V383.78H-498.966L-665.695 447.331V449.815L-668 450.7L-665.695 452.32L-663.39 453.929L-481.377 383.78H-241.619L-469.774 489.527H-665.695V491.539H-474.113L-665.695 580.337V583.032L-468.301 491.539H-138.718L-344.441 617.876H-665.695V623.911H-354.263L-560.179 750.359H-665.695V752.371H-563.453L-665.695 815.157V818.275L-558.378 752.371H-162.855L-343.395 903.533H-665.695V905.545H-345.797L-551.346 1077.66H-665.695V1084.11H-559.056L-636.483 1148.93H-629.645L-552.218 1084.11H-8.67896L-57.7464 1148.93H-53.5816L-4.5141 1084.11H486.509L462.566 1148.93H466.518L490.461 1084.11H957.232V1148.93H966.898V1084.11H1437.54L1461.49 1148.93H1465.44L1441.49 1084.11H1932.52L1981.59 1148.93H1985.73L1936.66 1084.11H2480.22L2557.65 1148.93H2564.49L2487.06 1084.11H2593.7V1077.66H2479.35L2273.8 905.545H2593.7V903.533H2271.4L2090.86 752.371H2486.38L2593.7 818.275V815.157L2491.46 752.371H2593.7V750.359H2488.18L2282.27 623.911H2593.7V617.876H2272.44L2066.72 491.539H2396.29L2593.7 583.032V580.337L2402.12 491.539H2593.7V489.527H2397.78L2169.62 383.78H2413.87L2593.7 452.32V447.331L2426.97 383.78H2593.7V381.768H2421.7L2195.54 295.565H2403.12L2593.7 356.903V354.539L2410.48 295.565H2593.7V290.535H2394.85L2173.96 219.431H2356.83L2593.7 284.611V282.338L2365.1 219.431H2555.65L2593.7 228.463V225.144L2569.64 219.431H2593.7V217.419H2561.15L2330.68 162.71H2500.89L2593.7 181.741V179.578L2511.43 162.71H2593.7V160.698H2501.63L2275.78 114.367H2416.63L2593.7 146.264V144.131L2428.46 114.367H2565.94L2593.7 118.813V115.655L2585.62 114.367H2593.7V111.35H2566.81L2285.6 66.2567H2391L2593.7 95.3867V93.2944L2405.53 66.2567H2511.56L2593.7 76.9692V74.8971L2527.45 66.2567H2593.7V64.2449H2512.05L2257.45 31.021H2337.03L2593.7 61.7504V59.6783L2354.27 31.021H2426.81L2593.7 49.5391V46.4511L2454.61 31.021H2524.83L2593.7 38.1828V36.1308L2544.55 31.021H2593.7V29.0093H2525.22L2265.68 2.01174H2321.34L2593.7 28.6975V26.6455L2342.24 2.01174H2396.87L2593.7 20.3085V18.2666L2418.85 2.01174H2472.24L2593.7 12.7745V10.7326L2495.27 2.01174H2547.63L2593.7 5.90446V3.86254L2571.77 2.01174H2593.7V0ZM886.274 2.01174L876.318 29.0093H794.145L814.562 2.01174H886.274ZM-25.9775 31.021H58.5007L-103.463 64.2449H-210.411L-25.9775 31.021ZM-222.247 64.2449H-325.361L-118.146 31.021H-37.794L-222.247 64.2449ZM127.83 66.2567H229.937L89.8434 111.35H-36.0312L127.83 66.2567ZM-44.3027 111.35H-172.347L17.5886 66.2567H119.559L-44.3027 111.35ZM239.68 160.698H99.3547L220.91 114.367H339.656L239.68 160.698ZM345.467 114.367H475.448L399.997 160.698H245.511L345.467 114.367ZM241.172 162.71H396.723L307.635 217.419H123.123L241.172 162.71ZM309.417 219.431H473.647L388.723 290.535H193.654L309.417 219.431ZM312.71 217.419L401.799 162.71H541.388L476.049 217.419H312.71ZM405.072 160.698L480.524 114.367H599.134L543.79 160.698H405.072ZM485.424 111.35L558.861 66.2567H656.589L602.737 111.35H485.424ZM480.349 111.35H351.976L449.258 66.2567H553.786L480.349 111.35ZM346.164 111.35H228.832L347.114 66.2567H443.447L346.164 111.35ZM212.425 111.35H97.2045L237.278 66.2567H329.408L212.425 111.35ZM204.599 114.367L84.3807 160.698H-56.1192L87.8288 114.367H204.599ZM94.0857 162.71H235.341L117.293 217.419H-49.4555L94.0857 162.71ZM118.784 219.431H304.361L188.579 290.535H-34.6171L118.784 219.431ZM382.718 295.565L279.779 381.768H45.0957L185.46 295.565H382.718ZM284.195 383.78H521.436L441.394 489.527H157.895L284.195 383.78ZM286.598 381.768L389.556 295.565H588.208L522.966 381.768H286.598ZM395.561 290.535L480.485 219.431H645.838L592.025 290.535H395.561ZM482.887 217.419L548.226 162.71H688.784L647.369 217.419H482.887ZM550.628 160.698L605.972 114.367H725.376L690.295 160.698H550.628ZM609.575 111.35L663.427 66.2567H761.775L727.643 111.35H609.575ZM665.829 64.2449L705.502 31.021H788.449L763.306 64.2449H665.829ZM658.991 64.2449H562.135L616.239 31.021H698.683L658.991 64.2449ZM557.059 64.2449H453.597L525.291 31.021H611.164L557.059 64.2449ZM447.786 64.2449H352.402L439.573 31.021H519.479L447.786 64.2449ZM334.619 64.2449H243.535L346.765 31.021H420.821L334.619 64.2449ZM236.174 64.2449H135.153L255.894 31.021H339.404L236.174 64.2449ZM126.881 64.2449H26.0538L166.011 31.021H247.623L126.881 64.2449ZM12.087 64.2449H-92.9247L69.058 31.021H152.045L12.087 64.2449ZM-102.727 66.2567H3.60248L-186.333 111.35H-322.513L-102.727 66.2567ZM-185.074 114.367H-55.2669L-223.642 160.698H-380.22L-185.074 114.367ZM-46.9954 114.367H80.4678L-63.4609 160.698H-215.371L-46.9954 114.367ZM-62.3761 162.71H79.1698L-62.7829 217.419H-232.359L-62.3761 162.71ZM-54.7439 219.431H112.953L-40.4479 290.535H-239.468L-79.2485 228.775L-54.7439 219.431ZM180.385 295.565L40.0205 381.768H-231.449L-45.4844 295.565H180.385ZM41.822 383.78H277.377L151.076 489.527H-130.369L41.822 383.78ZM155.493 491.539H439.863L344.246 617.876H4.60974L155.493 491.539ZM339.675 623.911L243.961 750.359H-153.615L-2.59637 623.911H339.675ZM246.596 752.371H609.071L553.224 903.533H132.17L246.596 752.371ZM248.126 750.359L343.84 623.911H656.531L609.807 750.359H248.126ZM348.411 617.876L444.028 491.539H705.444L658.759 617.876H348.411ZM445.558 489.527L525.6 383.78H745.251L706.18 489.527H445.558ZM527.131 381.768L592.373 295.565H777.834L745.988 381.768H527.131ZM596.17 290.535L650.003 219.431H805.961L779.694 290.535H596.17ZM651.514 217.419L692.93 162.71H826.921L806.697 217.419H651.514ZM694.46 160.698L729.522 114.367H844.781L827.657 160.698H694.46ZM731.808 111.35L765.94 66.2567H862.545L845.885 111.35H731.808ZM767.47 64.2449L792.614 31.021H875.562L863.3 64.2449H767.47ZM810.417 2.01174L789.98 29.0093H707.923L740.157 2.01174H810.417ZM733.319 2.01174L701.085 29.0093H619.512L663.466 2.01174H733.319ZM658.391 2.01174L614.437 29.0093H529.63L587.86 2.01174H658.391ZM515.663 2.01174H582.048L523.818 29.0093H444.842L514.036 2.62532L515.663 2.01174ZM496.079 2.01174L426.032 29.0093H353.002L436.861 2.01174H496.079ZM429.519 2.01174L345.661 29.0093H263.197L361.293 2.01174H429.519ZM288.186 2.01174H353.022L254.926 29.0093H174.496L286.636 2.38391L288.186 2.01174ZM274.219 2.01174L160.51 29.0093H78.8599L210.43 2.01174H274.219ZM199.892 2.01174L68.3026 29.0093H-14.8196L135.017 2.01174H199.892ZM62.743 2.01174H123.201L-26.6361 29.0093H-105.594L60.031 2.44426L62.743 2.01174ZM43.0424 2.01174L-125.294 29.0093H-203.787L-15.9432 2.01174H43.0424ZM-30.4717 2.01174L-218.296 29.0093H-298.163L-91.3362 2.01174H-30.4717ZM-503.867 29.0093H-577.478L-317.941 2.01174H-260.68L-503.867 29.0093ZM-413.771 29.0093H-485.329L-242.142 2.01174H-188.309L-413.771 29.0093ZM-387.911 29.0093L-163.494 2.1425L-163.552 2.01174H-107.24L-314.048 29.0093H-387.911ZM-463.517 64.2449H-568.141L-313.564 31.021H-232.301L-463.517 64.2449ZM-449.008 64.2449L-217.773 31.021H-137.827L-345.042 64.2449H-449.008ZM-619.107 111.35L-337.894 66.2567H-233.405L-483.702 111.35H-619.107ZM-471.885 111.35L-221.589 66.2567H-113.265L-333.07 111.35H-471.885ZM-563.085 160.698L-337.235 114.367H-199.041L-394.206 160.698H-563.085ZM-429.791 217.419H-619.184L-388.705 162.71H-230.945L-429.791 217.419ZM-421.52 217.419L-222.674 162.71H-69.7178L-239.701 217.419H-421.52ZM-459.507 290.535L-238.616 219.431H-68.0132L-83.8589 225.536L-254.346 290.535H-459.507ZM-476.166 381.768L-252.525 295.565H-51.2958L-237.279 381.768H-476.166ZM-463.943 489.527L-235.788 383.78H36.7468L-135.445 489.527H-463.943ZM-133.643 491.539H148.674L-2.22827 617.876H-339.366L-133.643 491.539ZM-555.104 750.359L-349.207 623.911H-9.43445L-160.453 750.359H-555.104ZM-156.017 752.371H242.431L128.024 903.533H-336.557L-156.017 752.371ZM-544.527 1077.66L-338.959 905.545H126.494L-3.77795 1077.66H-544.527ZM488.892 1077.66H0.367493L130.659 905.545H552.488L488.892 1077.66ZM957.232 1077.66H492.844L556.42 905.545H957.232V1077.66ZM957.232 903.533H557.176L613.023 752.371H957.232V903.533ZM957.232 750.359H613.759L660.483 623.911H957.232V750.359ZM957.232 617.876H662.711L709.376 491.539H957.232V617.876ZM957.232 489.527H710.112L749.184 383.78H957.232V489.527ZM957.232 381.768H749.939L781.786 295.565H957.232V381.768ZM957.232 290.535H783.626L809.894 219.431H957.232V290.535ZM957.232 217.419H810.649L830.853 162.71H957.232V217.419ZM957.232 160.698H831.609L848.714 114.367H957.232V160.698ZM957.232 111.35H849.837L866.496 66.2567H957.232V111.35ZM957.232 64.2449H867.233L879.514 31.021H957.232V64.2449ZM957.232 29.0093H880.25L890.226 2.01174H957.232V29.0093ZM2019.34 2.01174L2226.15 29.0093H2146.3L1958.48 2.01174H2019.34ZM1943.95 2.01174L2131.79 29.0093H2053.28L1884.94 2.01174H1943.95ZM1522.93 160.698H1384.19L1328.87 114.367H1447.48L1522.93 160.698ZM1452.56 114.367H1582.54L1682.49 160.698H1528.01L1452.56 114.367ZM1526.2 162.71L1615.29 217.419H1451.95L1386.6 162.71H1526.2ZM1618.59 219.431L1734.35 290.535H1539.28L1454.36 219.431H1618.59ZM1531.28 162.71H1686.83L1804.88 217.419H1620.37L1531.28 162.71ZM1588.35 114.367H1707.09L1828.63 160.698H1688.3L1588.35 114.367ZM1593.97 66.2567H1690.73L1830.8 111.35H1712.27L1593.97 66.2567ZM1699.17 111.35H1581.84L1484.56 66.2567H1580.87L1699.17 111.35ZM1576.03 111.35H1447.65L1374.22 66.2567H1478.75L1576.03 111.35ZM1442.58 111.35H1325.27L1271.41 66.2567H1369.14L1442.58 111.35ZM1318.43 111.35H1200.34L1166.23 66.2567H1264.58L1318.43 111.35ZM1322.03 114.367L1377.38 160.698H1237.71L1202.63 114.367H1322.03ZM1379.78 162.71L1445.12 217.419H1280.64L1239.22 162.71H1379.78ZM1447.52 219.431L1532.44 290.535H1335.98L1282.17 219.431H1447.52ZM1538.45 295.565L1641.41 381.768H1405.04L1339.79 295.565H1538.45ZM1643.81 383.78L1770.09 489.527H1486.61L1406.57 383.78H1643.81ZM1545.29 295.565H1742.54L1882.91 381.768H1648.22L1545.29 295.565ZM1739.42 290.535L1623.64 219.431H1809.22L1962.62 290.535H1739.42ZM1692.66 162.71H1833.92L1977.46 217.419H1810.71L1692.66 162.71ZM1720.19 114.367H1840.17L1984.12 160.698H1841.72L1720.19 114.367ZM1838.16 111.35L1698.07 66.2567H1800.17L1964.03 111.35H1838.16ZM1808.44 66.2567H1910.42L2100.35 111.35H1972.31L1808.44 66.2567ZM1775.96 31.021H1858.95L2020.91 64.2449H1915.92L1775.96 31.021ZM1901.95 64.2449H1801.12L1680.38 31.021H1761.99L1901.95 64.2449ZM1792.85 64.2449H1691.81L1588.6 31.021H1672.11L1792.85 64.2449ZM1684.47 64.2449H1588.7L1501.53 31.021H1581.24L1684.47 64.2449ZM1575.6 64.2449H1480.22L1408.52 31.021H1488.43L1575.6 64.2449ZM1474.41 64.2449H1370.94L1316.84 31.021H1402.71L1474.41 64.2449ZM1365.87 64.2449H1269.01L1229.32 31.021H1311.76L1365.87 64.2449ZM1262.17 64.2449H1164.7L1139.55 31.021H1222.48L1262.17 64.2449ZM1160.53 64.2449H1064.7L1052.44 31.021H1135.39L1160.53 64.2449ZM1162.06 66.2567L1196.2 111.35H1082.12L1065.46 66.2567H1162.06ZM1198.48 114.367L1233.54 160.698H1100.35L1083.22 114.367H1198.48ZM1235.07 162.71L1276.49 217.419H1121.31L1101.08 162.71H1235.07ZM1278 219.431L1331.81 290.535H1148.31L1122.04 219.431H1278ZM1335.63 295.565L1400.87 381.768H1182.02L1150.17 295.565H1335.63ZM1402.4 383.78L1482.45 489.527H1221.82L1182.75 383.78H1402.4ZM1483.98 491.539L1579.59 617.876H1269.24L1222.56 491.539H1483.98ZM1584.16 623.911L1679.88 750.359H1318.2L1271.47 623.911H1584.16ZM1681.41 752.371L1795.83 903.533H1374.78L1318.93 752.371H1681.41ZM1588.33 623.911H1930.6L2081.62 750.359H1684.04L1588.33 623.911ZM1583.76 617.876L1488.14 491.539H1772.49L1923.39 617.876H1583.76ZM1650.63 383.78H1886.18L2058.37 489.527H1776.93L1650.63 383.78ZM1747.62 295.565H1973.47L2159.45 381.768H1887.98L1747.62 295.565ZM1968.45 290.535L1815.05 219.431H1982.73L2169.27 290.535H1968.45ZM1847.01 162.71H1990.36L2160.36 217.419H1990.55L1847.01 162.71ZM1847.54 114.367H1975L2143.37 160.698H1991.46L1847.54 114.367ZM1983.27 114.367H2113.08L2308.22 160.698H2151.65L1983.27 114.367ZM1924.4 66.2567H2030.73L2250.52 111.35H2114.34L1924.4 66.2567ZM1869.5 31.021H1953.98L2138.41 64.2449H2031.47L1869.5 31.021ZM1965.8 31.021H2046.13L2253.36 64.2449H2150.23L1965.8 31.021ZM1865.26 2.01174L2033.6 29.0093H1954.64L1804.8 2.01174H1865.26ZM1792.99 2.01174L1942.82 29.0093H1859.68L1728.11 2.01174H1792.99ZM1717.57 2.01174L1849.14 29.0093H1767.49L1653.78 2.01174H1717.57ZM1639.82 2.01174L1753.51 29.0093H1673.08L1574.98 2.01174H1639.82ZM1566.71 2.01174L1664.81 29.0093H1582.34L1498.48 2.01174H1566.71ZM1491.12 2.01174L1574.98 29.0093H1496.24L1425.44 2.01174H1491.12ZM1412.34 2.01174L1483.16 29.0093H1404.19L1345.96 2.01174H1412.34ZM1340.14 2.01174L1398.37 29.0093H1313.57L1269.61 2.01174H1340.14ZM1264.54 2.01174L1308.49 29.0093H1226.92L1194.68 2.01174H1264.54ZM1187.85 2.01174L1220.08 29.0093H1138.02L1117.59 2.01174H1187.85ZM1113.42 2.01174L1133.86 29.0093H1051.69L1041.71 2.01174H1113.42ZM966.898 2.01174H1037.78L1047.75 29.0093H966.898V2.01174ZM966.898 31.021H1048.49L1060.77 64.2449H966.898V31.021ZM966.898 66.2567H1061.51L1078.17 111.35H966.898V66.2567ZM966.898 114.367H1079.29L1096.39 160.698H966.898V114.367ZM966.898 162.71H1097.15L1117.35 217.419H966.898V162.71ZM966.898 219.431H1118.09L1144.36 290.535H966.898V219.431ZM966.898 295.565H1146.22L1178.06 381.768H966.898V295.565ZM966.898 383.78H1178.82L1217.89 489.527H966.898V383.78ZM966.898 491.539H1218.63L1265.29 617.876H966.898V491.539ZM966.898 623.911H1267.52L1314.24 750.359H966.898V623.911ZM966.898 752.371H1314.98L1370.83 903.533H966.898V752.371ZM966.898 1077.66V905.545H1371.58L1435.16 1077.66H966.898ZM1439.11 1077.66L1375.52 905.545H1797.34L1927.64 1077.66H1439.11ZM2472.51 1077.66H1931.78L1801.51 905.545H2266.96L2472.51 1077.66ZM2264.56 903.533H1799.98L1685.57 752.371H2084.02L2264.56 903.533ZM2277.19 623.911L2483.11 750.359H2088.46L1937.44 623.911H2277.19ZM2267.37 617.876H1930.23L1779.33 491.539H2061.65L2267.37 617.876ZM2391.95 489.527H2063.45L1891.26 383.78H2163.79L2391.95 489.527ZM2408.61 381.768H2165.28L1979.3 295.565H2182.47L2408.61 381.768ZM2387.49 290.535H2182.35L1995.82 219.431H2166.6L2387.49 290.535ZM2167.7 217.419L1997.72 162.71H2150.68L2349.52 217.419H2167.7ZM2547.19 217.419H2357.79L2158.95 162.71H2316.71L2547.19 217.419ZM2491.09 160.698H2322.21L2127.04 114.367H2265.24L2491.09 160.698ZM2261.07 111.35L2041.27 66.2567H2149.59L2399.89 111.35H2261.07ZM2547.11 111.35H2411.7L2161.41 66.2567H2265.9L2547.11 111.35ZM2273.05 64.2449L2065.83 31.021H2145.78L2376.99 64.2449H2273.05ZM2496.14 64.2449H2391.52L2160.3 31.021H2241.57L2496.14 64.2449ZM2242.05 29.0093L2035.22 2.01174H2094.75L2320.21 29.0093H2242.05ZM2337.45 29.0093L2111.99 2.01174H2166.97L2166.91 2.17268L2408.7 29.0093H2337.45ZM2505.48 29.0093H2436.5L2193.31 2.01174H2245.94L2505.48 29.0093Z" fill="url(#paint0_linear_2351_194)"/>
<defs>
<linearGradient id="paint0_linear_2351_194" x1="962.849" y1="1141.74" x2="962.849" y2="8.03686" gradientUnits="userSpaceOnUse">
<stop stop-color="#97CEFF"/>
<stop offset="0.21" stop-color="#95CBFC"/>
<stop offset="0.35" stop-color="#8EC2F3"/>
<stop offset="0.48" stop-color="#84B4E3"/>
<stop offset="0.59" stop-color="#749FCD"/>
<stop offset="0.69" stop-color="#6184B1"/>
<stop offset="0.8" stop-color="#49648F"/>
<stop offset="0.89" stop-color="#2C3D66"/>
<stop offset="0.98" stop-color="#0C1137"/>
<stop offset="1" stop-color="#05072D"/>
</linearGradient>
</defs>
</svg>
