<svg width="192" height="21" viewBox="0 0 192 21" fill="none" xmlns="http://www.w3.org/2000/svg">
<g id="Group 397">
<path id="Vector" d="M91.7031 17.1901V0.955078H93.0649L100.213 13.617H99.4989L106.58 0.955078H107.942V17.1901H106.356V3.53005H106.734L100.21 15.1274H99.4284L92.8662 3.53005H93.2892V17.1901H91.7031Z" fill="#8FFFEF"/>
<path id="Vector_2" d="M117.935 17.1871C116.712 17.1871 115.637 16.9207 114.712 16.388C113.787 15.8553 113.061 15.1196 112.541 14.184C112.018 13.2485 111.758 12.1764 111.758 10.9712C111.758 9.76602 112.008 8.69732 112.509 7.76844C113.01 6.83956 113.697 6.11044 114.567 5.57443C115.441 5.04174 116.42 4.77539 117.512 4.77539C118.603 4.77539 119.595 5.03508 120.456 5.55445C121.313 6.07382 121.988 6.79961 122.482 7.73515C122.973 8.67068 123.22 9.74938 123.22 10.9746C123.22 11.0511 123.217 11.1344 123.208 11.2176C123.201 11.3042 123.195 11.3907 123.195 11.4839H112.965V10.2521H122.344L121.718 10.7382C121.718 9.85592 121.535 9.0702 121.169 8.38103C120.803 7.69187 120.308 7.15585 119.679 6.76632C119.053 6.38012 118.327 6.18702 117.508 6.18702C116.69 6.18702 115.98 6.38012 115.338 6.76632C114.696 7.15252 114.195 7.69519 113.838 8.39102C113.479 9.08685 113.302 9.88255 113.302 10.7815V11.0378C113.302 11.9667 113.498 12.7824 113.896 13.4882C114.291 14.194 114.843 14.74 115.553 15.1362C116.263 15.5291 117.072 15.7288 117.98 15.7288C118.696 15.7288 119.364 15.599 119.984 15.336C120.604 15.0729 121.137 14.6701 121.583 14.1274L122.479 15.1961C121.955 15.8453 121.304 16.3414 120.52 16.681C119.737 17.0206 118.876 17.1904 117.935 17.1904V17.1871Z" fill="#8FFFEF"/>
<path id="Vector_3" d="M131.31 17.1871C130.087 17.1871 129.012 16.9207 128.087 16.388C127.162 15.8553 126.436 15.1196 125.916 14.184C125.393 13.2485 125.133 12.1764 125.133 10.9712C125.133 9.76602 125.383 8.69732 125.884 7.76844C126.385 6.83956 127.072 6.11044 127.942 5.57443C128.816 5.04174 129.795 4.77539 130.887 4.77539C131.978 4.77539 132.97 5.03508 133.831 5.55445C134.688 6.07382 135.363 6.79961 135.857 7.73515C136.348 8.67068 136.595 9.74938 136.595 10.9746C136.595 11.0511 136.592 11.1344 136.583 11.2176C136.576 11.3042 136.57 11.3907 136.57 11.4839H126.34V10.2521H135.719L135.093 10.7382C135.093 9.85592 134.91 9.0702 134.544 8.38103C134.178 7.69187 133.683 7.15585 133.054 6.76632C132.428 6.38012 131.702 6.18702 130.883 6.18702C130.065 6.18702 129.355 6.38012 128.713 6.76632C128.071 7.15252 127.57 7.69519 127.213 8.39102C126.854 9.08685 126.677 9.88255 126.677 10.7815V11.0378C126.677 11.9667 126.873 12.7824 127.271 13.4882C127.666 14.194 128.218 14.74 128.928 15.1362C129.638 15.5291 130.447 15.7288 131.355 15.7288C132.071 15.7288 132.739 15.599 133.359 15.336C133.979 15.0729 134.512 14.6701 134.958 14.1274L135.854 15.1961C135.33 15.8453 134.679 16.3414 133.895 16.681C133.112 17.0206 132.251 17.1904 131.31 17.1904V17.1871Z" fill="#8FFFEF"/>
<path id="Vector_4" d="M137.555 6.04905V4.65472H144.473V6.04905H137.555ZM142.833 17.1901C141.783 17.1901 140.974 16.8746 140.406 16.2436C139.838 15.6126 139.554 14.7238 139.554 13.5703V1.91016H141.066V13.4753C141.066 14.2013 141.234 14.7611 141.566 15.1546C141.899 15.5482 142.379 15.7449 143.004 15.7449C143.67 15.7449 144.226 15.5312 144.665 15.1071L145.196 16.3149C144.897 16.6134 144.54 16.8339 144.122 16.9764C143.704 17.1189 143.273 17.1901 142.833 17.1901Z" fill="#8FFFEF"/>
<path id="Vector_5" d="M149.018 2.34227C148.749 2.34227 148.523 2.22599 148.339 1.99343C148.155 1.76086 148.062 1.4851 148.062 1.15951C148.062 0.833916 148.155 0.56148 148.339 0.335558C148.523 0.112959 148.749 0 149.018 0C149.286 0 149.512 0.106315 149.697 0.325592C149.881 0.541546 149.973 0.81066 149.973 1.13625C149.973 1.47514 149.883 1.76086 149.707 1.99343C149.531 2.22599 149.299 2.34227 149.02 2.34227H149.018ZM148.357 17.19V5.03008H149.66V17.19H148.357Z" fill="#8FFFEF"/>
<path id="Vector_6" d="M159.606 4.77539C160.531 4.77539 161.347 4.96691 162.048 5.34994C162.749 5.73297 163.3 6.31424 163.699 7.09375C164.097 7.87326 164.297 8.85772 164.297 10.0438V17.187H162.755V10.2084C162.755 8.91148 162.456 7.93374 161.855 7.26847C161.254 6.60656 160.41 6.27392 159.326 6.27392C158.516 6.27392 157.81 6.44864 157.209 6.80144C156.607 7.15423 156.143 7.66158 155.82 8.32349C155.493 8.98876 155.331 9.78842 155.331 10.7258V17.1904H153.789V4.89299H155.265V8.26637L155.025 7.6347C155.387 6.74432 155.966 6.04545 156.763 5.5381C157.56 5.03075 158.507 4.77539 159.606 4.77539Z" fill="#8FFFEF"/>
<path id="Vector_7" d="M173.721 16.1242C172.658 16.1242 171.706 15.8849 170.857 15.3998C170.007 14.9179 169.341 14.2477 168.851 13.386C168.364 12.5275 168.117 11.5381 168.117 10.4275C168.117 9.31685 168.361 8.33388 168.851 7.47856C169.338 6.62644 170.007 5.96261 170.857 5.48709C171.706 5.01156 172.661 4.77539 173.721 4.77539C174.71 4.77539 175.602 4.98922 176.393 5.42007C177.184 5.85091 177.815 6.48921 178.28 7.33495C178.746 8.18068 178.98 9.21153 178.98 10.4275C178.98 11.6434 178.746 12.6743 178.28 13.52C177.815 14.3657 177.184 15.0104 176.393 15.4572C175.602 15.9008 174.71 16.1242 173.721 16.1242ZM173.998 20.9976C172.978 20.9976 172.004 20.8412 171.07 20.5317C170.135 20.2189 169.38 19.7753 168.799 19.1976L169.563 17.9976C170.086 18.4859 170.735 18.8753 171.505 19.1657C172.275 19.4561 173.094 19.5998 173.955 19.5998C175.37 19.5998 176.408 19.2551 177.075 18.5657C177.738 17.8764 178.073 16.804 178.073 15.3519V12.4381L178.286 10.4371L178.137 8.436V4.89986H179.58V15.1572C179.58 17.1742 179.108 18.6551 178.168 19.5966C177.227 20.538 175.836 21.0104 173.998 21.0104V20.9976ZM173.87 14.7232C174.692 14.7232 175.419 14.5413 176.055 14.1775C176.691 13.8136 177.194 13.3094 177.562 12.6647C177.93 12.02 178.113 11.2732 178.113 10.4275C178.113 9.58174 177.93 8.84132 177.562 8.20302C177.194 7.56473 176.691 7.06367 176.055 6.70304C175.419 6.33921 174.689 6.1573 173.87 6.1573C173.051 6.1573 172.339 6.33921 171.694 6.70304C171.048 7.06686 170.549 7.56792 170.187 8.20302C169.825 8.84132 169.645 9.58174 169.645 10.4275C169.645 11.2732 169.825 12.02 170.187 12.6647C170.546 13.3094 171.048 13.8136 171.694 14.1775C172.336 14.5413 173.063 14.7232 173.87 14.7232Z" fill="#8FFFEF"/>
<path id="Vector_8" d="M187.186 17.1904C186.227 17.1904 185.318 17.0473 184.46 16.761C183.602 16.4748 182.932 16.1153 182.445 15.6826L183.154 14.3845C183.627 14.7573 184.231 15.0768 184.972 15.3464C185.709 15.616 186.484 15.7525 187.298 15.7525C188.407 15.7525 189.204 15.5694 189.691 15.2066C190.177 14.8438 190.421 14.3612 190.421 13.7555C190.421 13.3061 190.285 12.9533 190.011 12.7003C189.738 12.4474 189.379 12.251 188.937 12.1212C188.496 11.9914 188 11.8782 187.453 11.785C186.907 11.6918 186.363 11.5853 185.826 11.4588C185.286 11.3357 184.797 11.1526 184.352 10.913C183.91 10.6733 183.551 10.3438 183.278 9.92778C183.005 9.51172 182.868 8.95255 182.868 8.25691C182.868 7.56127 183.046 6.99544 183.399 6.46955C183.755 5.94366 184.273 5.53094 184.962 5.22806C185.648 4.92517 186.487 4.77539 187.476 4.77539C188.229 4.77539 188.982 4.87857 189.735 5.08826C190.488 5.29795 191.108 5.57088 191.597 5.91371L190.911 7.23509C190.393 6.86231 189.84 6.59603 189.249 6.43294C188.658 6.26985 188.067 6.18997 187.476 6.18997C186.427 6.18997 185.655 6.37969 185.162 6.75913C184.667 7.13857 184.419 7.62119 184.419 8.21032C184.419 8.67297 184.555 9.03909 184.829 9.30204C185.102 9.56498 185.464 9.77134 185.915 9.91779C186.367 10.0642 186.859 10.1841 187.399 10.2773C187.94 10.3705 188.477 10.4836 189.017 10.6134C189.557 10.7466 190.05 10.923 190.501 11.146C190.952 11.369 191.314 11.6885 191.588 12.0979C191.861 12.5073 191.998 13.0465 191.998 13.7122C191.998 14.4245 191.81 15.0402 191.432 15.5561C191.057 16.0754 190.51 16.4781 189.792 16.761C189.077 17.0473 188.21 17.1904 187.19 17.1904H187.186Z" fill="#8FFFEF"/>
<path id="Vector_9" d="M0 17.1901V0.955078H6.4115C8.06844 0.955078 9.35379 1.3177 10.2645 2.04628C11.1783 2.77486 11.6351 3.80285 11.6351 5.13026C11.6351 6.01188 11.4463 6.75376 11.0716 7.35592C10.697 7.95808 10.1884 8.41386 9.54263 8.72325C8.89691 9.03265 8.19332 9.18568 7.42882 9.18568L7.79127 8.6301C8.73853 8.6301 9.55786 8.78979 10.2432 9.10584C10.9285 9.42189 11.4646 9.8943 11.8453 10.5197C12.226 11.1452 12.4179 11.9237 12.4179 12.8519C12.4179 14.2292 11.9549 15.2938 11.026 16.0523C10.1 16.8108 8.70198 17.1901 6.83183 17.1901H0ZM1.57166 15.7762H6.8166C8.12022 15.7762 9.11621 15.5333 9.81067 15.0443C10.5051 14.5585 10.8523 13.7801 10.8523 12.7121C10.8523 11.6442 10.5051 10.8924 9.81067 10.4033C9.11621 9.91759 8.12022 9.6714 6.8166 9.6714H1.40109V8.25749H6.3049C7.49278 8.25749 8.41872 8.01131 9.07662 7.51561C9.73452 7.01991 10.0635 6.28468 10.0635 5.31324C10.0635 4.3418 9.73452 3.58661 9.07662 3.09756C8.41872 2.61185 7.49582 2.36566 6.3049 2.36566H1.57166V15.7695V15.7762Z" fill="#8FFFEF"/>
<path id="Vector_10" d="M21.4589 17.1871C20.2356 17.1871 19.1599 16.9207 18.2352 16.388C17.3105 15.8553 16.5848 15.1196 16.0647 14.184C15.5413 13.2485 15.2812 12.1764 15.2812 10.9712C15.2812 9.76602 15.5317 8.69732 16.0326 7.76844C16.5335 6.83956 17.2206 6.11044 18.0907 5.57442C18.9641 5.04174 19.9434 4.77539 21.0351 4.77539C22.1268 4.77539 23.1189 5.03508 23.9794 5.55445C24.8367 6.07382 25.511 6.79961 26.0054 7.73515C26.4967 8.67068 26.7439 9.74938 26.7439 10.9746C26.7439 11.0511 26.7407 11.1344 26.7311 11.2176C26.7247 11.3042 26.7182 11.3907 26.7182 11.4839H16.4885V10.2521H25.8674L25.2413 10.7382C25.2413 9.85591 25.0582 9.0702 24.6922 8.38103C24.3262 7.69186 23.8317 7.15585 23.2024 6.76632C22.5763 6.38012 21.8506 6.18702 21.0319 6.18702C20.2131 6.18702 19.5035 6.38012 18.8613 6.76632C18.2192 7.15252 17.7183 7.69519 17.3619 8.39102C17.0023 9.08684 16.8257 9.88255 16.8257 10.7815V11.0378C16.8257 11.9667 17.0215 12.7824 17.4197 13.4882C17.8146 14.194 18.3669 14.74 19.0765 15.1362C19.7861 15.5291 20.5952 15.7288 21.5039 15.7288C22.2199 15.7288 22.8877 15.599 23.5074 15.336C24.1271 15.0729 24.6601 14.6701 25.1064 14.1274L26.0022 15.1961C25.4789 15.8453 24.8271 16.3414 24.0436 16.681C23.2602 17.0206 22.3997 17.1904 21.4589 17.1904V17.1871Z" fill="#8FFFEF"/>
<path id="Vector_11" d="M29.5571 21.0104C29.0158 21.0104 28.4997 20.9203 28.0119 20.7402C27.521 20.5601 27.1025 20.29 26.75 19.933L27.4738 18.743C27.7665 19.026 28.0843 19.2479 28.4273 19.4055C28.7703 19.5631 29.1543 19.6403 29.5791 19.6403C30.0921 19.6403 30.5326 19.4956 30.9071 19.2029C31.2785 18.9102 31.6341 18.3989 31.9708 17.6688L32.7166 15.9418L32.8929 15.6941L37.6322 4.77539H39.1679L33.3964 17.9583C33.0754 18.7205 32.7198 19.3251 32.3327 19.7754C31.9456 20.2224 31.5239 20.5408 31.0708 20.7274C30.6176 20.9139 30.111 21.0072 29.5571 21.0072V21.0104ZM32.6285 16.8841L27.3196 4.77539H28.9434L33.6387 15.5816L32.6285 16.8809V16.8841Z" fill="#8FFFEF"/>
<path id="Vector_12" d="M45.8393 17.1904C44.7545 17.1904 43.7803 16.924 42.9137 16.3911C42.0502 15.8583 41.3679 15.1223 40.867 14.1865C40.3661 13.2508 40.1172 12.1784 40.1172 10.9729C40.1172 9.76736 40.3661 8.67506 40.867 7.74593C41.3679 6.8168 42.044 6.09082 42.9014 5.56465C43.7588 5.03848 44.7361 4.77539 45.8362 4.77539C46.9364 4.77539 47.9382 5.03848 48.8049 5.56465C49.6684 6.09082 50.3476 6.8168 50.8393 7.74593C51.331 8.67506 51.5799 9.75071 51.5799 10.9729C51.5799 12.1951 51.334 13.2508 50.8393 14.1865C50.3476 15.1223 49.6653 15.8583 48.7926 16.3911C47.9229 16.924 46.9364 17.1904 45.8362 17.1904H45.8393ZM45.8393 15.7284C46.6537 15.7284 47.3728 15.5319 48.0028 15.1356C48.6297 14.7427 49.1275 14.1832 49.4932 13.4639C49.8589 12.7446 50.0402 11.912 50.0402 10.9696C50.0402 10.0271 49.8589 9.17459 49.4932 8.46192C49.1306 7.74926 48.6328 7.19645 48.0028 6.80348C47.3728 6.40719 46.6598 6.21071 45.8608 6.21071C45.0618 6.21071 44.3458 6.40719 43.7189 6.80348C43.0889 7.19978 42.591 7.75259 42.2192 8.46192C41.8473 9.17459 41.663 10.0105 41.663 10.9696C41.663 11.9287 41.8473 12.7446 42.2192 13.4639C42.591 14.1832 43.0889 14.7427 43.7189 15.1356C44.3458 15.5286 45.0557 15.7284 45.8393 15.7284Z" fill="#8FFFEF"/>
<path id="Vector_13" d="M60.2627 4.77539C61.1877 4.77539 62.0036 4.96691 62.7043 5.34994C63.405 5.73297 63.9562 6.31424 64.3548 7.09375C64.7535 7.87326 64.9528 8.85772 64.9528 10.0438V17.187H63.4112V10.2084C63.4112 8.91148 63.1123 7.93374 62.5112 7.26847C61.9102 6.60656 61.0662 6.27393 59.9824 6.27393C59.1727 6.27393 58.4658 6.44864 57.8648 6.80144C57.2637 7.15423 56.7997 7.66158 56.4758 8.32349C56.1488 8.98876 55.9869 9.78843 55.9869 10.7259V17.1904H54.4453V4.89299H55.9215V8.26637L55.6817 7.6347C56.0429 6.74432 56.6222 6.04545 57.4194 5.5381C58.2167 5.03075 59.1634 4.77539 60.2627 4.77539Z" fill="#8FFFEF"/>
<path id="Vector_14" d="M74.4092 17.19C73.3326 17.19 72.3702 16.9292 71.5157 16.4077C70.6613 15.8862 69.9919 15.1601 69.5045 14.2326C69.0171 13.3051 68.7734 12.2357 68.7734 11.0243C68.7734 9.81295 69.0171 8.72372 69.5045 7.80283C69.9919 6.88193 70.6613 6.16569 71.5157 5.65078C72.3671 5.13587 73.3326 4.87842 74.4092 4.87842C75.3993 4.87842 76.2846 5.11607 77.0651 5.59137C77.8455 6.06667 78.4686 6.75981 78.9375 7.6741C79.4033 8.58839 79.6346 9.70402 79.6346 11.021C79.6346 12.338 79.4063 13.4371 78.9467 14.358C78.4871 15.2789 77.8671 15.9819 77.0867 16.4638C76.3062 16.9457 75.4117 17.19 74.4092 17.19ZM74.5171 15.741C75.3191 15.741 76.041 15.5462 76.6795 15.1535C77.318 14.7607 77.8208 14.2095 78.1848 13.4965C78.5519 12.7836 78.7339 11.9584 78.7339 11.0243C78.7339 10.0902 78.5519 9.24523 78.1848 8.53888C77.8208 7.83253 77.318 7.28462 76.6795 6.89514C76.041 6.50566 75.3222 6.30762 74.5171 6.30762C73.712 6.30762 73.018 6.50236 72.3887 6.89514C71.7563 7.28792 71.2566 7.83583 70.8834 8.53888C70.5101 9.24523 70.325 10.0737 70.325 11.0243C70.325 11.9749 70.5101 12.7836 70.8834 13.4965C71.2566 14.2095 71.7563 14.764 72.3887 15.1535C73.018 15.5429 73.7305 15.741 74.5171 15.741ZM78.774 17.0745V13.4371L78.9251 10.9979L78.7092 8.55868V0H80.2361V17.0745H78.774Z" fill="#8FFFEF"/>
</g>
</svg>
